<svg viewBox="0 0 2048 2048" width="1em" height="1em" class="icon strikethrough" focusable="false"><path d="M1977 1152h71v128h-75q-10 100-45 189.5t-95 157.5q-60 68-144 108t-192 40q-224 0-336-197h-4v172h-133v-470H896v470H763v-189h-4q-52 101-141 157.5T414 1775q-70 0-131-19.5t-106-58q-45-38.5-71-95.5t-26-131q0-51 12.5-100t42.5-91H0v-128h332q2 0 16.5-3t33-7q18.5-4 35.5-8t23-5l323-47q0-61-11-116.5t-38-98Q687 825 641 800t-116-25q-99 0-185 36.5T179 911V766q36-25 80-45t91-33.5q47-13.5 94.5-20.5t91.5-7q96 0 164.5 28t112 80Q856 820 876 893t20 164v95h128V173h133v716h4q60-111 158-170t225-59q109 0 189 39.5t133 107q53 67.5 80.5 157T1977 1152zM763 1280H314q-57 29-77 76t-20 107q0 49 17.5 86t47.5 61.5q30 24.5 70.5 37T438 1660q54 0 100.5-15.5T623 1601q38-28 67.5-68t47.5-89q16-42 20.5-80.5t4.5-83.5zm394-128h683q-3-73-23-141t-59.5-120.5q-39.5-52.5-99-84T1517 775q-82 0-147.5 29.5T1258 885q-46 51-72 120t-29 147zm678 128h-678v27q0 72 24.5 136.5T1250 1556q44 48 105.5 76t136.5 28q82 0 142.5-32t102.5-85q42-53 66-121.5t32-141.5z"></path></svg>
