<svg viewBox="0 0 2048 2048" width="1em" height="1em" class="icon emphasis" focusable="false"><path d="M1255 901q92 0 173.5 35t142 95.5Q1631 1092 1666 1173t35 173q0 92-35 173.5t-95.5 142q-60.5 60.5-142 95.5t-173.5 35H512V128h743q80 0 150 30.5t122.5 83q52.5 52.5 83 122.5t30.5 150q0 80-30 150.5t-82.5 123q-52.5 52.5-123 83T1255 901zm-208-535H896v475h151q49 0 92.5-19t75.5-51q32-32 51-75.5t19-92.5q0-49-19-92t-51-75.5q-32-32.5-75.5-51T1047 366zM896 1554h210q49 0 92.5-18.5t75.5-51q32-32.5 51-75.5t19-92q0-49-18.5-92.5t-51-76q-32.5-32.5-76-51T1106 1079H896v475z"></path></svg>
