<svg class="Zi Zi--InsertUnorderedList" width="14" height="12" fill="currentColor" version="1.1" xmlns="http://www.w3.org/2000/svg">
<path d="m4 1c0-0.55 0.46-1 1-1h8c0.55 0 1 0.44 1 1 0 0.55-0.46 1-1 1h-8a1 1 0 0 1-1-1zm-3 1a1 1 0 1 1 0-2 1 1 0 0 1 0 2zm0 5a1 1 0 1 1 0-2 1 1 0 0 1 0 2zm0 5a1 1 0 1 1 0-2 1 1 0 0 1 0 2zm3-6c0-0.55 0.46-1 1-1h8c0.55 0 1 0.44 1 1 0 0.55-0.46 1-1 1h-8a1 1 0 0 1-1-1zm0 5c0-0.55 0.46-1 1-1h8c0.55 0 1 0.44 1 1 0 0.55-0.46 1-1 1h-8a1 1 0 0 1-1-1z" fill-rule="evenodd"/>
</svg>
