<svg class="Zi Zi--InsertOrderedList" width="14" height="14" fill="currentColor" version="1.1" viewBox="0 0 14 14" xmlns="http://www.w3.org/2000/svg">
<path d="m4.3 12c0-0.43 0.46-0.78 1-0.78h8c0.55 0 1 0.35 1 0.78 0 0.43-0.46 0.78-1 0.78h-8a1 0.78 0 0 1-1-0.78zm0-5c0-0.43 0.46-0.78 1-0.78h8c0.55 0 1 0.35 1 0.78 0 0.43-0.46 0.78-1 0.78h-8a1 0.78 0 0 1-1-0.78zm-1.5 5.8c0 0.18-0.031 0.34-0.095 0.49a1.1 1.1 0 0 1-0.27 0.39 1.3 1.3 0 0 1-0.42 0.26c-0.16 0.063-0.35 0.093-0.55 0.093-0.21 0-0.4-0.034-0.58-0.1a1.5 1.5 0 0 1-0.46-0.27 1.3 1.3 0 0 1-0.31-0.4 1.1 1.1 0 0 1-0.13-0.48v-0.069h0.96v0.068a0.43 0.43 0 0 0 0.46 0.44c0.15 0 0.26-0.038 0.34-0.11 0.078-0.075 0.12-0.19 0.12-0.35 0-0.15-0.049-0.26-0.15-0.34a0.64 0.64 0 0 0-0.4-0.11h-0.18v-0.65h0.18c0.15 0 0.26-0.038 0.33-0.11a0.39 0.39 0 0 0 0.11-0.28 0.34 0.34 0 0 0-0.11-0.26 0.42 0.42 0 0 0-0.29-0.1c-0.13 0-0.23 0.034-0.3 0.1a0.35 0.35 0 0 0-0.095 0.25v0.069h-0.87v-0.069a1.1 1.1 0 0 1 0.37-0.81c0.22-0.2 0.55-0.3 0.97-0.3 0.18 0 0.34 0.026 0.49 0.08s0.28 0.13 0.39 0.22a1 1 0 0 1 0.26 0.33c0.063 0.13 0.094 0.26 0.094 0.4 0 0.32-0.15 0.58-0.44 0.76v0.01a0.78 0.78 0 0 1 0.24 0.15 0.98 0.98 0 0 1 0.32 0.72zm-0.55-5.4-0.51 0.51h1.1v0.95h-2.9v-0.62l1.4-1.2c0.48-0.4 0.6-0.56 0.6-0.73 0.0039-0.26-0.17-0.48-0.51-0.48-0.37 0-0.54 0.27-0.54 0.56h-0.91c0-0.83 0.62-1.4 1.5-1.4s1.5 0.59 1.5 1.2c0 0.4-0.14 0.67-0.6 1.1zm-1.1-3.4v-2.8h-0.87l0.22-1.1h1.7v3.9zm3.1-1.9c0-0.43 0.46-0.78 1-0.78h8c0.55 0 1 0.35 1 0.78 0 0.43-0.46 0.78-1 0.78h-8a1 0.78 0 0 1-1-0.78z" stroke-width=".89"/>
</svg>
