<svg class="Zi Zi--InsertLink" width="17" height="17" fill="currentColor" version="1.1" viewBox="0 0 17 17" xmlns="http://www.w3.org/2000/svg">
<path d="m3.3 14c-0.9-0.9-0.94-2.3-0.08-3.2l3.1-3.1-1.2-1.2-3.1 3.1c-1.5 1.5-1.4 4 0.14 5.5 1.6 1.6 4 1.6 5.5 0.14l3.1-3.1-1.2-1.2-3.1 3.1c-0.86 0.86-2.3 0.82-3.2-0.08zm3-8.7 1.2 1.2 3.1-3.1c0.86-0.86 2.3-0.82 3.2 0.08 0.9 0.9 0.94 2.3 0.08 3.2l-3.1 3.1 1.2 1.2 3.1-3.1c1.5-1.5 1.4-4-0.14-5.5-1.6-1.6-4-1.6-5.5-0.14zm-1 6.7c0.33 0.33 0.86 0.34 1.2 0.029l5.3-5.3c0.31-0.31 0.3-0.85-0.03-1.2s-0.86-0.34-1.2-0.03l-5.3 5.3c-0.31 0.31-0.3 0.85 0.03 1.2z" fill-rule="evenodd"/>
</svg>
