<?xml version="1.0" encoding="UTF-8" standalone="no"?>
<svg
   xmlns:dc="http://purl.org/dc/elements/1.1/"
   xmlns:cc="http://creativecommons.org/ns#"
   xmlns:rdf="http://www.w3.org/1999/02/22-rdf-syntax-ns#"
   xmlns:svg="http://www.w3.org/2000/svg"
   xmlns="http://www.w3.org/2000/svg"
   xmlns:sodipodi="http://sodipodi.sourceforge.net/DTD/sodipodi-0.dtd"
   xmlns:inkscape="http://www.inkscape.org/namespaces/inkscape"
   class="Zi Zi--InsertDivider"
   viewBox="0 0 32 32"
   width="32"
   height="32"
   version="1.1"
   id="svg4"
   sodipodi:docname="splitline.svg"
   style="fill:currentColor"
   inkscape:version="0.92.4 (5da689c313, 2019-01-14)">
  <metadata
     id="metadata10">
    <rdf:RDF>
      <cc:Work
         rdf:about="">
        <dc:format>image/svg+xml</dc:format>
        <dc:type
           rdf:resource="http://purl.org/dc/dcmitype/StillImage" />
        <dc:title></dc:title>
      </cc:Work>
    </rdf:RDF>
  </metadata>
  <defs
     id="defs8" />
  <sodipodi:namedview
     pagecolor="#ffffff"
     bordercolor="#666666"
     borderopacity="1"
     objecttolerance="10"
     gridtolerance="10"
     guidetolerance="10"
     inkscape:pageopacity="0"
     inkscape:pageshadow="2"
     inkscape:window-width="1920"
     inkscape:window-height="1000"
     id="namedview6"
     showgrid="false"
     inkscape:zoom="9.8333333"
     inkscape:cx="13.79661"
     inkscape:cy="7.932203"
     inkscape:window-x="0"
     inkscape:window-y="0"
     inkscape:window-maximized="1"
     inkscape:current-layer="svg4"
     fit-margin-top="0"
     fit-margin-left="0"
     fit-margin-right="0"
     fit-margin-bottom="0" />
  <path
     d="m 1.220339,6.7987288 c 0,-1.035 0.834375,-1.875 1.875,-1.875 h 26.25 c 1.035,0 1.875,0.8325 1.875,1.875 0,1.035 -0.834375,1.875 -1.875,1.875 h -26.25 c -1.035,0 -1.875,-0.8325 -1.875,-1.875 z m 0,9.3750002 a 1.875,1.875 0 0 1 1.89375,-1.875 h 3.7125 a 1.8750002,1.8750002 0 1 1 0,3.75 h -3.7125 c -1.048125,0 -1.89375,-0.8325 -1.89375,-1.875 z m 11.25,0 a 1.875,1.875 0 0 1 1.89375,-1.875 h 3.7125 a 1.8750002,1.8750002 0 1 1 0,3.75 h -3.7125 c -1.04625,0 -1.89375,-0.8325 -1.89375,-1.875 z m 11.25,0 a 1.875,1.875 0 0 1 1.89375,-1.875 h 3.7125 a 1.8750002,1.8750002 0 1 1 0,3.75 h -3.7125 c -1.04625,0 -1.89375,-0.8325 -1.89375,-1.875 z m -22.5,9.375 c 0,-1.035 0.834375,-1.875 1.875,-1.875 h 26.25 c 1.035,0 1.875,0.8325 1.875,1.875 0,1.035 -0.834375,1.875 -1.875,1.875 h -26.25 c -1.035,0 -1.875,-0.8325 -1.875,-1.875 z"
     id="path2"
     inkscape:connector-curvature="0"
     style="fill-rule:evenodd;stroke-width:1.875" />
</svg>
