<svg width="68mm" height="68mm" enable-background="new" version="1.1" viewBox="0 0 68 68" xmlns="http://www.w3.org/2000/svg" xmlns:xlink="http://www.w3.org/1999/xlink">
<defs>
<linearGradient id="a">
<stop stop-color="#96fffd" offset="0"/>
<stop stop-color="#96fffd" stop-opacity="0" offset="1"/>
</linearGradient>
<radialGradient id="b" cx="118" cy="155" r="310" gradientTransform="matrix(1.1 0 0 1.1 -11 -15)" gradientUnits="userSpaceOnUse">
<stop offset="0"/>
<stop stop-opacity="0" offset="1"/>
</radialGradient>
<linearGradient id="k" x1="499" x2="193" y1="461" y2="206" gradientTransform="matrix(1 0 0 1 -5.3 -5.3)" gradientUnits="userSpaceOnUse">
<stop stop-color="#fff" stop-opacity="0" offset="0"/>
<stop stop-color="#fff" offset="1"/>
</linearGradient>
<linearGradient id="j" x1="-194" x2="370" y1="59" y2="59" gradientTransform="translate(-5 2.7)" gradientUnits="userSpaceOnUse">
<stop stop-color="#ff0" offset="0"/>
<stop stop-color="#ff0" stop-opacity=".5" offset="1"/>
</linearGradient>
<linearGradient id="g" x1="-106" x2="387" y1="49" y2="448" gradientTransform="translate(-2.2 2.2)" gradientUnits="userSpaceOnUse">
<stop stop-color="#313b70" offset="0"/>
<stop stop-color="#313b70" stop-opacity="0" offset="1"/>
</linearGradient>
<filter id="l" color-interpolation-filters="sRGB">
<feGaussianBlur in="SourceGraphic" result="result6" stdDeviation="3"/>
<feColorMatrix in="SourceGraphic" result="result7" values="1 0 0 0 0 0 1 0 0 0 0 0 1 0 0 0 0 0 1 0 "/>
<feComposite in="result6" in2="result7" operator="in"/>
</filter>
<linearGradient id="i" x1="30" x2="37" y1="-.83" y2="-6.8" gradientTransform="matrix(.72 0 0 .72 -18 -25)" gradientUnits="userSpaceOnUse">
<stop stop-color="#fff" offset="0"/>
<stop stop-color="#fff" stop-opacity="0" offset="1"/>
</linearGradient>
<radialGradient id="f" cx="94" cy="-34" r="7.2" gradientUnits="userSpaceOnUse" xlink:href="#a"/>
<radialGradient id="e" cx="71" cy="-48" r="2.9" gradientUnits="userSpaceOnUse" xlink:href="#a"/>
<radialGradient id="d" cx="49" cy="-59" r="5.2" gradientTransform="matrix(.77 0 0 .77 9.9 -12)" gradientUnits="userSpaceOnUse" xlink:href="#a"/>
<linearGradient id="h" x1="37" x2="49" y1="8.6" y2="8.6" gradientTransform="matrix(.73 0 0 .73 9.9 3.9)" gradientUnits="userSpaceOnUse">
<stop stop-color="#fff" offset="0"/>
<stop stop-color="#fff" stop-opacity="0" offset="1"/>
</linearGradient>
<radialGradient id="c" cx="108" cy="-93" r="3.7" gradientTransform="matrix(1.1 .15 -.3 2.3 -43 108)" gradientUnits="userSpaceOnUse">
<stop stop-color="#ffc24b" offset="0"/>
<stop stop-color="#ffc24b" stop-opacity="0" offset="1"/>
</radialGradient>
</defs>
<g transform="translate(222 -427)"></g>
<g transform="translate(222 -427)">
<g transform="matrix(.1 0 0 .1 -200 445)">
<g enable-background="new">
<g>
<path d="m458 155a340 340 0 0 1-339 340 340 340 0 0 1-341-338 340 340 0 0 1 337-342 340 340 0 0 1 343 336" fill="url(#b)" style="paint-order:normal"/>
<path d="m-41 84-12 10 3.1 15-10-12-15 3.1 12-10-3.1-15 10 12z" fill="#313b70" style="paint-order:normal"/>
</g>
</g>
<g>
<path d="m398 155a280 280 0 0 1-279 280 280 280 0 0 1-281-278 280 280 0 0 1 278-282 280 280 0 0 1 282 277" enable-background="new" fill="#666" style="paint-order:normal"/>
<path transform="translate(-222 -185)" d="m607 340a267 267 0 0 1-267 267 267 267 0 0 1-267-267 267 267 0 0 1 267-267 267 267 0 0 1 267 266" enable-background="new" fill="url(#k)" filter="url(#l)" style="paint-order:normal"/>
<path d="m377 156a260 260 0 0 1-259 260 260 260 0 0 1-261-258 260 260 0 0 1 258-262 260 260 0 0 1 262 257" enable-background="new" fill="url(#g)" style="paint-order:normal"/>
<path transform="scale(.26)" d="m-239-56c0-3.8 0.41-5.4 0.91-3.5 0.5 1.9 0.5 5.1 0 7-0.5 1.9-0.91 0.35-0.91-3.5z" enable-background="new" fill="#df5" style="paint-order:normal"/>
<path d="m46 13-4.1-1.4-3.3 2.8 1.4-4.1-2.8-3.3 4.1 1.4 3.3-2.8-1.4 4.1z" enable-background="new" fill="url(#h)" style="paint-order:normal"/>
<path transform="rotate(-24 48 -57)" d="m50-61-0.96 3.7 2.7 2.7-3.7-0.96-2.7 2.7 0.96-3.7-2.7-2.7 3.7 0.96z" enable-background="new" fill="url(#d)" style="paint-order:normal"/>
<path transform="matrix(.75 -.53 .53 .75 16 -3.3)" d="m4-30 2.3 1.7 2.6-1.1-1.7 2.3 1.1 2.6-2.3-1.7-2.6 1.1 1.7-2.3z" enable-background="new" fill="url(#i)" style="paint-order:normal"/>
<path transform="matrix(.67 0 0 .61 29 -10)" d="m95-41 0.35 6 5.3 2.7-6 0.35-2.7 5.3-0.35-6-5.3-2.7 6-0.35z" enable-background="new" fill="url(#f)" style="paint-order:normal"/>
<path d="m131-50-2.1-0.33-1.3 1.7 0.33-2.1-1.7-1.3 2.1 0.33 1.3-1.7-0.33 2.1z" enable-background="new" fill="#fff" style="paint-order:normal"/>
<path d="m-16 1.1-2.5 0.67-0.67 2.5-0.67-2.5-2.5-0.67 2.5-0.67 0.67-2.5 0.67 2.5z" enable-background="new" fill="#fff" style="paint-order:normal"/>
<path transform="matrix(1.2 0 0 1.3 -16 17)" d="m70-51 1.2 2.1 2.5-8e-3 -2.1 1.2 8e-3 2.5-1.2-2.1-2.5 8e-3 2.1-1.2z" enable-background="new" fill="url(#e)" style="paint-order:normal"/>
</g>
<g fill="#fff">
<path d="m130 0.34-1.5-1.4-1.9 0.59 1.4-1.5-0.59-1.9 1.5 1.4 1.9-0.59-1.4 1.5z" enable-background="new" style="paint-order:normal"/>
<path d="m170-71-2.1-0.33-1.3 1.7 0.33-2.1-1.7-1.3 2.1 0.33 1.3-1.7-0.33 2.1z" enable-background="new" style="paint-order:normal"/>
<path d="m180-39-1.8-1.5-2.2 0.75 1.5-1.8-0.75-2.2 1.8 1.5 2.2-0.75-1.5 1.8z" enable-background="new" style="paint-order:normal"/>
<path d="m22 42 1.8 1.7 2.4-0.72-1.7 1.8 0.72 2.4-1.8-1.7-2.4 0.72 1.7-1.8z" enable-background="new" style="paint-order:normal"/>
</g>
<path d="m111-89-3.1-2.3-3.5 1.5 2.3-3.1-1.5-3.5 3.1 2.3 3.5-1.5-2.3 3.1z" enable-background="new" fill="url(#c)" style="paint-order:normal"/>
<g fill="#fff">
<path d="m-30-40-1.1-0.5-0.98 0.69 0.5-1.1-0.69-0.98 1.1 0.5 0.98-0.69-0.5 1.1z" enable-background="new" style="paint-order:normal"/>
<path d="m-9.1-64-0.95 0.57 0.017 1.1-0.57-0.95-1.1 0.017 0.95-0.57-0.017-1.1 0.57 0.95z" enable-background="new" style="paint-order:normal"/>
<path d="m-20-53-1.3 0.36-0.36 1.3-0.36-1.3-1.3-0.36 1.3-0.36 0.36-1.3 0.36 1.3z" enable-background="new" style="paint-order:normal"/>
</g>
<g>
<path d="m0.43-26a13 13 0 0 1-13 13 13 13 0 0 1-13-13 13 13 0 0 1 13-13 13 13 0 0 1 13 13" enable-background="new" fill="#efa" style="paint-order:normal"/>
<path d="m-92 45-2.2 1.2-0.045 2.5-1.2-2.2-2.5-0.045 2.2-1.2 0.045-2.5 1.2 2.2z" enable-background="new" fill="#cefbff" style="paint-order:normal"/>
<path d="m-63 47-2 1.8 0.54 2.7-1.8-2-2.7 0.54 2-1.8-0.54-2.7 1.8 2z" enable-background="new" fill="#feedff" style="paint-order:normal"/>
<path d="m-115 114-1.2 2.5 1.6 2.3-2.5-1.2-2.3 1.6 1.2-2.5-1.6-2.3 2.5 1.2z" enable-background="new" fill="#e8fdff" style="paint-order:normal"/>
</g>
<g fill="#fee8ff">
<path d="m-71 113-2.6-0.25-1.5 2.1 0.25-2.6-2.1-1.5 2.6 0.25 1.5-2.1-0.25 2.6z" enable-background="new" style="paint-order:normal"/>
<path d="m-39 78-1.8 0.48-0.48 1.8-0.48-1.8-1.8-0.48 1.8-0.48 0.48-1.8 0.48 1.8z" enable-background="new" style="paint-order:normal"/>
<path d="m-94 80-4 0.44-1.6 3.7-0.44-4-3.7-1.6 4-0.44 1.6-3.7 0.44 4z" enable-background="new" style="paint-order:normal"/>
<path d="m242 28-3.2 1.3-0.48 3.4-1.3-3.2-3.4-0.48 3.2-1.3 0.48-3.4 1.3 3.2z" enable-background="new" style="paint-order:normal"/>
</g>
<g fill="#dbfffb">
<path transform="rotate(-49 216 68)" d="m221 69-3.7-0.44-2.2 3 0.44-3.7-3-2.2 3.7 0.44 2.2-3-0.44 3.7z" enable-background="new" style="paint-order:normal"/>
<path d="m284 75-3.3-0.46-2 2.6 0.46-3.3-2.6-2 3.3 0.46 2-2.6-0.46 3.3z" enable-background="new" style="paint-order:normal"/>
<path d="m166 112-4.1-0.24-2.3 3.4 0.24-4.1-3.4-2.3 4.1 0.24 2.3-3.4-0.24 4.1z" enable-background="new" style="paint-order:normal"/>
</g>
<g transform="matrix(.086 -.028 .028 .086 -2.5 201)" enable-background="new">
<path d="m359 131c-0.67-0.62-1.4-0.93-2.3-0.93-3.1 0-6.4 4.4-9.3 8.2-1.1 1.5-2.5 3.4-3.3 4-0.086-1.5 1-5.6 1.8-8.8 2.1-7.9 4.3-16 0.74-18-0.37-0.2-0.76-0.3-1.2-0.3-2.5 0-4.5 3.8-7.5 10-2.3 4.9-5.2 11-7.6 11-0.15 0-0.3-0.026-0.46-0.081-0.42-0.75-0.38-4.2-0.36-6.7 0.072-6.6 0.15-14-4-15-0.12-0.017-0.25-0.025-0.37-0.025-3.6 0-5.7 6.8-8 14-1.1 3.5-2.7 8.8-3.7 9.2-1.3-0.25-3.8-4-5.8-7.1-3.3-5-6.5-9.7-9.5-9.4-3.1 0.26-3 4.6-3 9.3 0.041 3.8 0.093 8.5-1.8 9.6-0.18 0.099-0.38 0.15-0.61 0.15-2.1 0-5.6-3.8-8.4-6.8-3.3-3.6-5.3-5.7-7.2-5.7-0.45 0-0.87 0.14-1.2 0.4-2 1.5-1.9 6-1.8 11 0.06 2.4 0.15 6-0.34 6.7-0.92-0.12-3.5-1.9-5.8-3.4-5.1-3.4-11-7.6-17-7.6-0.85 0-1.6 0.12-2.4 0.35-5.6 1.8-6.6 4.4-7.4 6.2-0.37 0.92-0.56 1.3-1.1 1.6-0.64 0.27-1.7 0.17-2.8-7e-3 -0.76-0.12-1.5-0.23-2.4-0.23-1.8 0-3.4 0.63-4.6 1.9-1.3 1.3-2.5 2.9-3.6 4.4-1.7 2.2-3.3 4.4-4.8 4.9-0.81 0.3-2.4 2-7 6.9-10 11-31 33-42 33-2 0-3.5-0.81-4.6-2.5-1.8-2.7-4.5-7.8-7.8-14-11-20-27-50-41-58-36-19-68-49-84-65-9.1-8.8-12-12-14-12-0.48 0-0.9 0.22-1.2 0.6-0.49 0.73-0.31 1.9 0.65 4.2 2.9 7.1 9.6 17 15 25 3.1 4.5 6.6 9.5 7.5 12-2.5-1.2-7.4-6.3-11-10-7-7.4-11-12-14-12-0.56 0-1.1 0.16-1.5 0.48-2.3 1.7 0.99 6.3 6.9 14 2.4 3.2 5.9 7.8 6.3 9.4-1.3-0.27-4.1-2.5-6.3-4.3-3.9-3.1-7.9-6.2-11-6.2-0.56 0-1.1 0.12-1.5 0.34-0.67 0.33-1.1 0.88-1.3 1.6-0.48 2.1 1.7 5.2 5.2 9.6 1.5 1.9 3.7 4.8 3.9 5.8-0.14 0.028-0.29 0.042-0.45 0.042-1.6 0-3.8-1.2-6.1-2.4-2.4-1.3-4.7-2.5-6.6-2.5-0.64 0-1.2 0.14-1.7 0.43-2.2 1.2-0.21 5.1 1.9 9.2 0.56 1.1 1.3 2.6 1.6 3.3-0.51 0.071-1.3 0.072-2 0.073-1.9 3e-3 -4 6e-3 -5 1.1-0.46 0.47-0.7 1.1-0.69 1.8 0.042 2.7 42 93 92 128 6.6 4.7 9.2 13 12 21 0.91 2.9 1.8 5.7 2.8 8.2 0.37 0.91 0.38 1.7 0.017 2.4-1.6 3.1-9.7 5.2-18 7.4-4.9 1.3-10 2.6-15 4.3-62 7.6-62 11-62 13 0 3.3 2.2 4.9 3.8 6.1 1.6 1.2 1.9 1.5 1.6 2.2-0.38 0.94-1.3 1.9-2.2 2.9-2.1 2.2-4.6 5-3.1 9.1 0.56 1.5 2.4 2.2 5.6 2.2 5.5 0 15-2.1 21-3.9-15 8.5-15 10-15 11 0 0.76 0 2.2 8.5 2.2 8.5 0 22-1.5 32-5.9 3.1-1.3 5.7-2.6 8.3-3.9 2.4-1.2 4.7-2.3 7-3.3 26 1.4 66 3 94 3 16 0 25-0.52 29-1.6 5.1-1.4 11-3.6 17-6 11-4.4 23-8.9 32-8.9 1.9 0 3.6 0.2 5 0.59 13 3.5 18 14 18 14l0.2 0.43 0.46 0.12c0.079 0.02 0.51 0.12 1.2 0.12 1.9 0 6.6-0.9 8.8-9.3 1.3-4.9-1.2-8.5-2.2-9.7 0.24-2.7 0.78-16-10-25-6.7-5.3-13-7.8-18-9.4-2.1-0.77-5-1.8-4.9-2.4 0.45-2.9 29-60 69-73 31-9.9 39-29 40-37 1.1-4.8 0.85-9.1-0.56-10z"/>
</g>
<g transform="matrix(-.086 -.028 -.028 .086 205 201)" enable-background="new" fill="#fff">
<path d="m359 131c-0.67-0.62-1.4-0.93-2.3-0.93-3.1 0-6.4 4.4-9.3 8.2-1.1 1.5-2.5 3.4-3.3 4-0.086-1.5 1-5.6 1.8-8.8 2.1-7.9 4.3-16 0.74-18-0.37-0.2-0.76-0.3-1.2-0.3-2.5 0-4.5 3.8-7.5 10-2.3 4.9-5.2 11-7.6 11-0.15 0-0.3-0.026-0.46-0.081-0.42-0.75-0.38-4.2-0.36-6.7 0.072-6.6 0.15-14-4-15-0.12-0.017-0.25-0.025-0.37-0.025-3.6 0-5.7 6.8-8 14-1.1 3.5-2.7 8.8-3.7 9.2-1.3-0.25-3.8-4-5.8-7.1-3.3-5-6.5-9.7-9.5-9.4-3.1 0.26-3 4.6-3 9.3 0.041 3.8 0.093 8.5-1.8 9.6-0.18 0.099-0.38 0.15-0.61 0.15-2.1 0-5.6-3.8-8.4-6.8-3.3-3.6-5.3-5.7-7.2-5.7-0.45 0-0.87 0.14-1.2 0.4-2 1.5-1.9 6-1.8 11 0.06 2.4 0.15 6-0.34 6.7-0.92-0.12-3.5-1.9-5.8-3.4-5.1-3.4-11-7.6-17-7.6-0.85 0-1.6 0.12-2.4 0.35-5.6 1.8-6.6 4.4-7.4 6.2-0.37 0.92-0.56 1.3-1.1 1.6-0.64 0.27-1.7 0.17-2.8-7e-3 -0.76-0.12-1.5-0.23-2.4-0.23-1.8 0-3.4 0.63-4.6 1.9-1.3 1.3-2.5 2.9-3.6 4.4-1.7 2.2-3.3 4.4-4.8 4.9-0.81 0.3-2.4 2-7 6.9-10 11-31 33-42 33-2 0-3.5-0.81-4.6-2.5-1.8-2.7-4.5-7.8-7.8-14-11-20-27-50-41-58-36-19-68-49-84-65-9.1-8.8-12-12-14-12-0.48 0-0.9 0.22-1.2 0.6-0.49 0.73-0.31 1.9 0.65 4.2 2.9 7.1 9.6 17 15 25 3.1 4.5 6.6 9.5 7.5 12-2.5-1.2-7.4-6.3-11-10-7-7.4-11-12-14-12-0.56 0-1.1 0.16-1.5 0.48-2.3 1.7 0.99 6.3 6.9 14 2.4 3.2 5.9 7.8 6.3 9.4-1.3-0.27-4.1-2.5-6.3-4.3-3.9-3.1-7.9-6.2-11-6.2-0.56 0-1.1 0.12-1.5 0.34-0.67 0.33-1.1 0.88-1.3 1.6-0.48 2.1 1.7 5.2 5.2 9.6 1.5 1.9 3.7 4.8 3.9 5.8-0.14 0.028-0.29 0.042-0.45 0.042-1.6 0-3.8-1.2-6.1-2.4-2.4-1.3-4.7-2.5-6.6-2.5-0.64 0-1.2 0.14-1.7 0.43-2.2 1.2-0.21 5.1 1.9 9.2 0.56 1.1 1.3 2.6 1.6 3.3-0.51 0.071-1.3 0.072-2 0.073-1.9 3e-3 -4 6e-3 -5 1.1-0.46 0.47-0.7 1.1-0.69 1.8 0.042 2.7 42 93 92 128 6.6 4.7 9.2 13 12 21 0.91 2.9 1.8 5.7 2.8 8.2 0.37 0.91 0.38 1.7 0.017 2.4-1.6 3.1-9.7 5.2-18 7.4-4.9 1.3-10 2.6-15 4.3-62 7.6-62 11-62 13 0 3.3 2.2 4.9 3.8 6.1 1.6 1.2 1.9 1.5 1.6 2.2-0.38 0.94-1.3 1.9-2.2 2.9-2.1 2.2-4.6 5-3.1 9.1 0.56 1.5 2.4 2.2 5.6 2.2 5.5 0 15-2.1 21-3.9-15 8.5-15 10-15 11 0 0.76 0 2.2 8.5 2.2 8.5 0 22-1.5 32-5.9 3.1-1.3 5.7-2.6 8.3-3.9 2.4-1.2 4.7-2.3 7-3.3 26 1.4 66 3 94 3 16 0 25-0.52 29-1.6 5.1-1.4 11-3.6 17-6 11-4.4 23-8.9 32-8.9 1.9 0 3.6 0.2 5 0.59 13 3.5 18 14 18 14l0.2 0.43 0.46 0.12c0.079 0.02 0.51 0.12 1.2 0.12 1.9 0 6.6-0.9 8.8-9.3 1.3-4.9-1.2-8.5-2.2-9.7 0.24-2.7 0.78-16-10-25-6.7-5.3-13-7.8-18-9.4-2.1-0.77-5-1.8-4.9-2.4 0.45-2.9 29-60 69-73 31-9.9 39-29 40-37 1.1-4.8 0.85-9.1-0.56-10z" fill="#fff"/>
</g>
<g fill="none">
<path d="m70 409c7.8-17 16-33 17-50s-5.2-33-3.7-51 11-37 12-59c1.1-21-5.7-45-15-59-9.1-14-20-18-28-31-7.7-13-12-35-25-45-13-9.6-34-6.9-56-4.1" enable-background="new"/>
<path d="m124 414c4.3-15 8.6-31 6.3-45-2.3-15-11-29-14-50-3.4-21-1.4-48-2.1-71s-4.3-40-12-55c-7.7-15-19-28-28-43-8.8-14-15-30-27-39-12-9.4-31-13-50-17" enable-background="new"/>
<path d="m70 409c-0.071-0.01-0.14-0.041-0.21-0.029-0.044 8e-3 0.02 0.094 0 0.13-0.014 0.028-0.053 0.039-0.067 0.067-0.0099 0.02 0.022 0.067 0 0.067s0-0.089 0-0.067c0 0.045 0.02 0.094 0 0.13-0.0099 0.02-0.082 0.016-0.067 0 0.1-0.11 0.23-0.2 0.35-0.31" enable-background="new"/>
<path d="m-3.8 94c-3.5-0.44-7-0.88-13 0.054-5.6 0.94-13 3.3-21 9.1-7.6 5.9-15 15-20 23s-8.4 14-11 17-4.5 3.9-6.4 4.6" enable-background="new"/>
<path d="m-29 110c-3.1 1.2-6.3 2.4-12 7.6-5.3 5.2-13 14-19 21-5.8 6.4-9.9 9.8-13 11s-6.5 1.4-8.9 1.3c-2.4-0.16-4.3-0.28-3.2-0.78s5.2-1.4 9.2-2.2" enable-background="new"/>
<path d="m49 113c-22-17-44-33-58-50-14-17-20-33-31-44-11-11-28-17-47-12-20 4.4-42 19-57 36-14 17-20 36-26 55" enable-background="new"/>
<path d="m5.1 96c-13-13-27-25-35-37-8.2-12-11-22-22-29s-29-10-47-3.8c-17 6.4-33 23-42 35-9.3 13-12 22-15 31" enable-background="new"/>
<path d="m-156 93c-2 13-4 26-1.5 38 2.6 11 9.5 20 17 29" enable-background="new"/>
<path d="m-169 97c-1.9 9.8-3.8 20-2.5 29 1.3 9.7 5.8 19 12 28 5.8 8.8 13 17 20 25" enable-background="new"/>
<path d="m-141 159c6.2 8.2 12 17 15 25 3.1 8.4 3.3 17 2.1 31-1.1 14-3.6 33-2.4 50 1.2 17 6 31 11 45" enable-background="new"/>
<path d="m-140 179c1.7 4.5 3.5 9 4.5 15s1.2 14 0.68 27-1.6 30 0.57 48c2.2 18 7.7 37 14 49s13 19 27 24c14 5.8 35 11 48 15 12 4.3 16 7.7 19 11" enable-background="new"/>
<path d="m-115 310c4.2 8 8.5 16 16 22 7.9 5.6 20 8.9 31 13 12 3.8 24 8.2 33 13 9.1 5 15 11 20 17 5.4 6.5 10 14 15 21" enable-background="new"/>
</g>
<g fill="#cf0">
<path transform="scale(.26)" d="m-618 558c-12-21-22-48-27-70-2.1-9.6-2.3-13-2.3-37 0.033-28 0.99-37 7.9-72 3.9-20 21-75 34-106 30-75 71-129 134-176 55-41 111-66 164-74 18-2.6 45-2.4 62 0.56 31 5.5 60 18 84 38 22 18 36 36 70 92 29 48 41 66 62 91 10 13 43 45 57 58l11 9.5-50 21-16-15c-19-19-44-45-56-59-21-25-30-36-50-70-19-31-26-41-37-52-27-29-71-46-121-48-41-1.6-82 9.1-119 31-58 35-119 100-151 160-8.4 16-14 29-21 51-7.2 22-8.8 31-17 96-8 63-11 99-12 132l-0.22 10z" enable-background="new" style="paint-order:normal"/>
<path transform="scale(.26)" d="m0.039 344-6-5.7 55-17 3.3 2.7-2.2 1.3c-13 7.6-43 25-44 25-0.23 0-3.1-2.6-6.4-5.7z" enable-background="new" style="paint-order:normal"/>
<path transform="scale(.26)" d="m146 401c-11-4.1-34-15-54-24l-7.7-3.2 18-9.3s13 10 20 16c7.5 5.9 17 13 21 16 9.5 8 9.4 8 2.8 4.3z" enable-background="new" style="paint-order:normal"/>
<path transform="scale(.26)" d="m-540 636c-0.37-6.4-0.49-6.8-0.6-13l-0.36-20 24 20 13 18-12 6.9c-6.6 3.8-22 12-22 12s-0.95-15-1.2-23z" enable-background="new" style="paint-order:normal"/>
<path transform="scale(.26)" d="m-348 1297c-25-10-38-17-54-29-31-23-55-62-75-127-26-80-35-156-31-259 2.6-68 3.1-90 2.1-112-1.7-39-15-54-29-91-1.4-4-1.7-11-1.7-11l24-13c8-4.3 15-7.6 15-7.3 1.8 1.9 12 20 17 30 13 26 18 49 18 84-0.019 20-0.96 34-5.5 86-5 56-6.6 84-6.6 115-0.011 62 7.1 103 31 179 8.8 27 13 36 25 57 12 20 18 28 35 45 8.4 8.3 23 24 33 36 21 24 21 24 20 24-0.48-0.013-7.9-2.9-17-6.4z" enable-background="new" style="paint-order:normal"/>
</g>
<path d="m2.5 396c4.3 7.4 8.5 15 15 19 6 4.5 14 6.1 23 4.6s20-6.1 30-11" enable-background="new" fill="none"/>
<path d="m-26 370c9.9 17 20 33 30 44 9.9 11 20 16 34 15 14-1.3 33-9.4 52-17" enable-background="new" fill="none"/>
<path transform="scale(.26)" d="m115 1621c-34-2.7-63-18-92-48-29-30-59-59-109-143-7-12-20-27-20-27l-27-20c-11-8.3-32-23-32-23-18-13-35-29-52-43 0 0 29 9 34 11 69 27 101 50 143 103 19 24 45 61 57 80 16 28 27 41 41 53 13 12 29 20 47 23 3.5 0.68 15 3.8 25 6.9 21 6.4 42 12 54 15l7.8 2-6.1 1.7c-23 6.4-50 9.5-69 8z" enable-background="new" fill="#cf0" style="paint-order:normal"/>
<path d="m227-16c19-9.6 37-19 47-30 9.7-11 11-23 7.8-33-2.8-10-9.3-18-23-26-14-7.7-36-15-64-14-28 0.41-62 8.4-84 13-22 4.3-34 5.1-52 3.3-19-1.7-48-6.3-68-1.7-19 4.7-30 18-39 32-9.3 14-17 28-21 40s-2.8 22 2.6 31c5.3 8.7 15 16 25 23" enable-background="new" fill="none"/>
<path d="m188 8.9c0.62-0.56 1.2-1.1 5.1-5.8 3.9-4.7 11-14 25-24 13-10 33-22 44-33 11-11 13-21 3.1-31-9.5-9.8-30-19-57-21s-60 5-85 8.6c-26 3.6-45 4.3-66 2.2-21-2.2-45-7.1-63-1.5-18 5.6-29 22-38 37-8.9 15-15 28-17 38-2 9.5 0.25 15 4.2 21 3.9 6.4 9.5 14 15 21" enable-background="new" fill="none"/>
<g fill="#df5">
<path transform="scale(.26)" d="m728 14c2.5-4.1 25-30 38-42 29-29 52-47 114-91 51-35 73-52 92-68 51-44 63-83 38-118-19-28-61-54-114-72-12-4.2-33-12-47-18-49-21-82-32-139-45-16-3.7-29-7.1-29-7.5-1.4-1.4 36-3 66-2.8 84 0.41 163 19 227 54 62 34 91 74 94 130 1.2 29-5.2 52-21 75-23 34-64 65-154 112-16 8.4-31 16-33 18-2.3 1.4-7.5 3.9-12 5.6-31 13-71 37-106 63-13 9.8-16 11-14 7.9z" enable-background="new" style="paint-order:normal"/>
<path transform="scale(.26)" d="m-182-280c43-64 80-96 127-112 29-9.8 52-13 100-13 37 0.069 63 1.8 135 9.5 92 9.7 87 16 139 9.1 9.8-1.3 74-6.5 85-6.7 42-0.53 82-0.83 82-0.83 41 2.8 84 7.7 125 14 0 0-52-2.1-87 3.3-122 18-156 22-222 22-48 0.018-65-1.1-138-9.7-73-8.5-81-9.2-114-9.3-59-0.092-91 8.8-130 37-6.6 4.7-24 16-38 25-28 18-36 23-60 41-8.6 6.5-16 12-17 12s5.6-9.7 14-22z" enable-background="new" style="paint-order:normal"/>
<path transform="scale(.26)" d="m-202 34c-3.5-1.5-11-4.3-17-6.2l-10-3.4-6-6.6c-20-22-31-41-35-64-3.1-14-3.9-36-1.3-39 4-5.7 55-57 56-56 0.18 0.18-1.8 5.3-4.3 11-8.8 21-16 44-17 58-0.41 3.3-1.1 7.6-1.4 9.5-0.86 4.3-0.87 9.1-0.03 12 0.36 1.4 1 5.1 1.5 8.2 2.4 17 13 37 34 68 4.1 5.9 7.4 11 7.3 11-0.11 0.098-3.1-1.1-6.6-2.6z" enable-background="new" style="paint-order:normal"/>
</g>
<path transform="scale(.26)" d="m-312 570c-2.9-0.25-5.4-0.63-5.6-0.85-0.6-0.6 5.7-2.3 21-5.8 18-4.1 21-5 28-10 6.7-5.1 11-11 27-36 24-39 41-63 63-88 18-21 36-36 53-47 28-17 63-27 93-26 10 0.37 24 2 25 2.9 0.083 0.093-22 13-49 28-35 20-51 29-55 30-21 8.3-35 21-71 62-3.7 4.3-12 14-18 21-15 17-23 26-32 35-22 22-37 32-52 35-4.7 0.82-17 0.89-26 0.14z" enable-background="new" fill="#aad400" stroke-width=".5" style="paint-order:normal"/>
<path d="m364-82-286 173 30-34-190 93 28-20-146 77 213-121-41 13 186-87-33 38z" enable-background="new" fill="url(#j)" stroke="#fffdbd" stroke-opacity=".78" stroke-width=".26px"/>
<path d="m-55 123c-6.1 5-12 10-16 14-4.3 4.1-6.8 7.3-9.7 9.6-2.9 2.3-6.1 3.7-10 4.7-4.4 0.98-9.8 1.5-13 2.5-3.6 0.96-5.2 2.3-7.1 4.5-1.9 2.1-4.1 5-6.5 7.4s-4.9 4.1-8.4 5.6c-3.5 1.5-7.9 2.7-12 4-4.2 1.3-8.1 2.7-12 4.1-3.5 1.4-6.6 2.8-9.8 4.8-3.1 2-6.3 4.7-8.6 6.4-2.4 1.7-4 2.6-5.8 3.3-1.8 0.74-3.9 1.4-6.1 2.8-2.2 1.4-4.6 3.7-4.7 3.5-0.033-0.17 2.3-2.8 5-4.5 2.7-1.8 5.7-2.7 8.8-4.6 3.1-1.9 6.2-4.7 9.3-6.9 3.1-2.2 6.2-3.8 9.7-5.4s7.3-3.2 11-4.2c3.3-1 6-1.5 9.2-2.7s6.9-3.2 10-5.9c3.4-2.7 6.5-6.2 9.1-8.7 2.6-2.5 4.6-4.1 8.8-5.4 4.2-1.3 11-2.4 15-3.1 3.9-0.76 5.1-1.2 7.6-4s6.3-7.9 12-13c6-5.5 14-11 23-17" fill="none"/>
<g fill="#df5">
<path transform="scale(.26)" d="m-356 574c0-0.43 24-13 26-14 6-2.2 11-5.5 16-12 1.9-2.1 6.8-8 11-13 24-29 39-43 71-68 13-9.9 44-32 44-32 0.08 0.08-5.1 6.9-11 15l-12 15-9.8 8.1c-39 32-47 39-75 68-5.5 5.6-11 11-13 13-12 9.2-24 15-42 19-6.2 1.3-6.3 1.3-6.3 1.1z" style="paint-order:normal"/>
<path transform="scale(.26)" d="m-522 661c0.59-0.36 4.8-2.6 9.5-5 4.6-2.4 8.8-4.6 9.3-4.9 0.49-0.28 3.3-1.6 6.2-2.8 14-5.9 26-14 38-24 2.6-2.2 11-11 20-19 16-16 19-19 26-22 5.8-3.3 13-6.2 23-8.8 2.7-0.7 5-1.2 5.2-1.2 0.52 0.17-19 11-22 13-8.7 3.6-14 8.1-27 23-3.7 4.4-8.6 10-11 13-14 16-27 24-49 32-5.7 2-28 9.1-29 9.1-0.21-7.3e-4 0.096-0.29 0.69-0.65z" style="paint-order:normal"/>
<path transform="scale(.26)" d="m-698 753c2.4-2.5 7.2-6.7 11-9.2 5.4-4.1 9.1-6.1 21-12 16-7.5 19-9.9 37-24 17-13 25-18 39-26 9.1-4.5 20-9.2 30-13 5.7-2.3 12-4.8 13-4.7 0.16 0.052-25 14-27 15-0.39 0.19-2.2 0.98-4 1.7-9.6 4-18 8.2-25 12-7.5 4.5-14 9.4-29 21-9.8 7.6-15 11-20 14-4.4 2.5-7.7 4-18 8-10 4-17 7.7-26 15-1.3 1-2.4 1.9-2.5 1.9-0.073 0 0.19-0.33 0.57-0.73z" style="paint-order:normal"/>
</g>
<path transform="scale(.26)" d="m405 1562c-19-0.84-67-6-66-5.9l-9.9-1.2s-59-8.1-60-9.4c-0.37-0.37 3.3-9.2 8.1-20 44-95 57-145 53-204-0.89-12-3.8-38-6.5-57-12-89-11-103 17-211 12-47 15-62 19-88 2.7-20 3-63 0.72-83-6.4-57-24-114-48-154-15-25-28-40-66-75-40-37-48-50-76-119-21-53-33-74-51-93-19-20-45-32-76-35l-20-0.021 33-19c14-7.5 28-13 30-13 3 0 26 12 40 18 43 17 72 42 99 83 3.6 5.6 16 27 27 47 26 47 34 59 61 97 37 51 49 70 61 90 30 51 45 102 53 177 1.9 17 2.6 45 3.4 140 0.63 67 1.8 126 2.7 136 5.1 54 13 85 37 153 22 60 25 74 25 111-0.064 20-0.8 30-3.3 45-3.2 19-11 53-18 77l-3.7 13-27-0.27c-15-0.15-31-0.46-36-0.68z" fill="#aad400" style="paint-order:normal"/>
<path d="m100 191c-1.1-31-2.2-63 11-92 13-30 41-58 62-77 22-19 37-29 50-35 13-5.8 23-7.1 38-6.6 15 0.56 35 3.1 55 11 19 7.5 38 20 50 33 12 13 18 25 21 36 3 11 3.1 21-0.49 29-3.6 7.8-11 14-20 16-8.4 2.6-18 1.8-24-12-6.2-14-9.5-40-8.3-65 1.2-25 6.8-49 8.9-55 2.1-6.2 0.56 5.4-0.5 21-1.1 16-1.7 36-0.25 53 1.4 17 4.9 31 7.9 38 3 7.7 5.5 9.3 9.5 8.4s9.7-4.2 13-11c3.3-6.9 4.2-17 0.95-27-3.2-9.9-11-19-21-28-10-8.9-23-17-38-23-15-6.2-32-10-45-12-13-1.6-22-0.62-32 1.8-10 2.5-22 6.4-33 13-10 7-19 17-33 33-14 16-32 38-43 57-10 19-13 35-14 56-1.6 22-2.7 49-3.9 77" fill="none"/>
<g fill="#cf0">
<path transform="scale(.26)" d="m419 830c-6.1-32-17-64-32-95l-9.2-19-0.77-66c-0.81-70 0.25-97 5.3-137 14-114 55-199 148-306 68-79 172-173 245-220 63-41 111-59 166-62l14-0.9-4.2 2.7c-2.3 1.5-26 15-52 29-26 15-48 27-48 28-0.39 0.5-4.8 2.4-9.9 4.2-16 5.6-46 21-61 31-36 24-61 48-136 136-124 144-169 214-190 292-15 55-20 120-30 336-1.4 33-2.9 60-3.2 60-0.33 0.33-1.7-5-3-12z" style="paint-order:normal"/>
<path transform="scale(.26)" d="m1259 38c-14-8.2-41-22-58-29-77-32-179-54-239-50-13 0.84-19 1.4-30 3.3-3.8 0.61-7.2 0.99-7.7 0.85s14-9.3 32-20l33-20 5.7 0.11c3.1 0.061 12 0.59 20 1.2 71 5.2 136 20 191 44 6.6 2.8 13 5.4 14 5.8s2.1 1.1 2.2 1.6c0.17 0.43 11 16 24 34 13 18 24 34 25 34 1.2 1.9-1.7 0.56-13-5.9z" style="paint-order:normal"/>
<path transform="scale(.26)" d="m1466 299c-12-51-27-88-75-192-7.3-16-13-28-13-28 0.4-0.4 18 19 25 27 12 14 25 33 33 47 19 34 32 75 36 111 1.3 14-0.14 39-2.7 46-0.39 1-1.4-2.2-3.6-11z" style="paint-order:normal"/>
<path transform="scale(.26)" d="m1350 395c-18-3.9-34-17-46-39-18-34-31-94-35-171-1.1-18-1.1-72 0.01-89 0.91-15 2.8-37 3.5-43l0.48-3.8 22 14 0.01 22c0.012 38 1.7 74 5 104 6 55 19 110 34 139 5.2 10 9.5 16 15 19 3.3 1.8 4.5 2.1 9.5 2.1 11-0.02 26-6.7 37-17l3.6-3.4 6.9 26c3.8 14 7.1 26 7.3 26 0.45 1.2-9.3 6-19 9.4-16 5.4-31 7.1-43 4.5z" style="paint-order:normal"/>
<path d="m340 16c-1.4-1.2-2.4-2.3-2.7-2.8l-0.46-0.89 0.45-3.9c0.53-4.6 1.1-8.8 1.2-8.9 0.081-0.097 1.9 1.3 3.5 2.7l1.1 0.94-0.25 6.8c-0.14 3.7-0.3 7.1-0.37 7.4l-0.12 0.63z" style="paint-order:normal"/>
<path transform="scale(.26)" d="m1288 7.9c-4.5-2.8-8.2-5.6-8.3-6.2-0.34-1.7 4.5-30 9-52 4.7-23 9.9-45 14-56l2.4-7.4 0.21 4.5c0.12 2.5-0.92 19-2.3 37-2.9 38-4.4 59-5.1 75-0.27 5.9-0.68 11-0.92 11-0.23-0.036-4.1-2.4-8.6-5.2z" style="paint-order:normal"/>
</g>
<g transform="matrix(.071 -.025 .025 .071 -13 291)" enable-background="new" fill="#fff">
<g fill="#fff">
<g fill="#fff">
<path d="m560 214c-11-4.5-21-10-30-17-2.9-2.3-5.6-4.8-8.1-7.5-4.7-4.9-10-8.8-16-11-6.2-2.7-10-7.3-13-13-2.2-5.3-3.4-11-4.4-17-0.26-1.4-0.017-2.9 0.013-4.4 0.024-1.1 0.13-2.2 0.11-3.3-0.037-2.1-0.71-3.8-2.8-5-3-1.7-5-4.4-6.2-7.6-0.85-2.3-1.1-4.7-0.36-7.2 0.96-3.3 2-6.5 2.9-9.8 0.44-1.6 0.73-3.3 0.9-4.9 0.2-1.9-0.24-3.7-1.2-5.4-1.2-2-3.3-2.6-5.2-1.3-1.3 0.93-2.6 2.2-3.4 3.5-3.8 5.7-6.6 12-8.3 19-0.63 2.4-2 4.4-3.8 6.1-2.7 2.7-5.4 3-8.7 1.2-5.4-3-11-6-16-8.9-3.1-1.6-6.2-3.2-9.3-4.7-9.7-4.7-14-17-9.3-27 1.7-3.5 2.5-7.4 2.8-11 0.065-0.96-0.037-2-0.24-2.9-0.54-2.4-2.2-3.5-4.6-3-2.8 0.59-5.1 2.1-7 4.3-3 3.6-5 7.9-6.5 12-1.3 4-2.4 8-3.4 12-0.9 3.5-2.5 6.5-5.3 8.7-1.7 1.3-3.6 2.1-5.8 2.1-9.2 0.16-19 0.38-28-0.66-4.7-0.53-9.3-1.4-14-2.2-0.27-0.045-0.56-0.098-0.8-0.22-6-3-12-6.4-16-12-2.8-3.5-4.2-7.5-3.9-12 0.1-1.6 0.66-3.1 1.1-4.6 0.66-2.1 1.5-4.2 2.1-6.3 0.48-1.6 0.4-1.7-0.36-3.8-1.8 0.33-3.6 0.6-5.4 0.97-1.8 0.38-3.6 0.93-5.5 1.3-2.4 0.46-4.7-0.061-6.7-1.6-1.4-1.1-2.8-2.3-4-3.6-1.2-1.2-2.2-2.5-3.4-3.7-1.1-1.1-2.4-2.2-3.7-3.1-1.9-1.2-3.6-0.29-3.7 2-0.094 1.6 0.38 3.2 1.3 4.6 1.9 2.9 3.8 5.8 5.8 8.7 2 2.9 4.2 5.7 6.2 8.7 2 3 3.6 6.3 4.4 9.9 0.55 2.3 0.7 4.5-1.5 6-2.3 1.6-4.7 1.5-7.1 0.069-3.4-2-6.4-4.4-9-7.3-2.8-3.1-5.4-6.4-8.1-9.6-3-3.5-5.9-7-9-10-2-2.3-4.2-4.2-7.1-5.4-0.2-0.074-0.38-0.17-0.58-0.24-3.4-1.2-4.6-0.22-4.4 3.4 0.14 2.3 1.1 4.3 2.3 6.2 1.4 2.1 2.7 4.2 4.3 6.2 4.6 5.7 9.1 11 14 17 6.1 7.1 14 12 22 17 5.9 3 12 4.6 19 5.8 2.4 0.46 4.8 0.65 7.1 1.8 5.4 2.6 8.9 9.1 7.8 15-0.38 2.1-1.3 4-2.9 5.4-0.98 0.84-1.6 1.9-2 3.1-0.29 1.1-0.13 2.2 0.53 3.2 1.9 2.9 4.4 5 7.7 6.2 0.66 0.23 1.3 0.52 2 0.65 4.5 0.88 8.4 3.2 12 5.3 7.6 4.1 15 7.9 23 11 10 4.1 20 7.1 31 8.1 1.2 0.11 2.4 0.045 3.5 0.082 2.5 0.078 5 0.098 7.5 0.26 2.5 0.17 4.8 1.1 6.7 2.7 3.2 2.5 6.7 4.4 10 6.3 1 0.54 2.1 1.1 3.1 1.8 4 2.5 5.3 6.4 3.4 11-0.97 2.2-2.1 4.4-3.6 6.3-3.9 5-5.9 11-6.8 17-0.85 5.8-1.3 12-2 17-0.82 7.2-1.4 14-2.6 22-1.6 9.9-4.2 20-7.4 29-0.9 2.7-1.8 5.4-2.8 8.1-3.1 7.9-8.4 14-15 19-6.6 4.9-14 8.2-22 10-15 3.7-30 4.7-45 3.9-8.9-0.47-17-2.5-26-5.4-9.5-3.3-19-7.6-28-12-6.2-2.8-12-5.6-19-8-3.6-1.3-7.4-2.1-11-2.8-6.8-1.2-14-2.3-21-3.3-4.7-0.67-9.4-0.92-14-0.57-0.88 0.065-1.8 0.18-2.6 0.56-4.8 2.3-9.8 4-15 5.2-5.5 1.3-11 3.3-15 6.3-6.9 4.3-15 6.3-23 7.8-4.2 0.84-8.4 0.69-13-0.22-0.92-0.2-2-0.25-2.9-0.062-1.6 0.32-2.1 1.3-1.9 2.9 0.55 4.8 3.2 8 7.4 10 1.4 0.69 2.8 1.3 4.1 2 0.78 0.43 1.5 1 2.1 1.7 1.2 1.3 1.6 2.8 0.67 4.4-1.1 2-2.1 4.1-3.5 5.9-4.1 5.1-7.2 11-11 16-0.88 1.4-1.8 2.8-2.8 4.1-1.6 2.2-3.8 3.6-6.5 4.3-3.3 0.86-6.6 1.6-10 1.5-2.8-0.13-5.5-0.77-8.1-1.8-4.3-1.6-8.7-3-13-3.2-2.6-0.095-4.6 0.57-6.5 2.5-3.7 3.9-6.8 8.2-10 13-3.7 5.1-7.3 10-11 15-2.3 2.8-5.1 5.3-7.9 7.7-2.9 2.6-6.1 4.9-9.1 7.3-2.8 2.2-5.9 3.6-9.2 4.9-3.1 1.2-6.3 2.3-9.3 3.6-2 0.85-4 1.8-5.7 3.1-4.9 3.7-10 5.3-17 5.6-1.3 0.057-2.7 0.19-4 0.045-4.5-0.51-8.3 1.1-12 3.6-3.2 2.2-5.7 5.1-7.7 8.4-1.4 2.4-1.5 4.9-0.72 7.5 0.51 1.8 1.8 2.7 3.6 3 8.5 1.5 17 0.56 24-2.8 2.3-1 4.8-1.2 7.3-1.4 2.2-0.11 4.3-0.18 6.5-0.32 2.8-0.18 5.3-0.93 7.7-2.4 7-4.5 14-9 21-14 5.2-3.4 11-6.5 16-9.1 2-0.86 4.1-1.4 6.2-1.9 3-0.69 5.8-1.6 8.4-3.5 2.7-2 5.9-3.2 9.1-4 2.8-0.65 5.7-0.56 8.4 0.49 5.3 2 11 4 16 5.9 7 2.6 14 4.7 22 5.2 1.7 0.1 3.3 0.55 5 0.7 3.4 0.3 6.7-0.033 10-0.73 5.6-1.2 11-2.4 17-3.6 3.2-0.71 6.3-1.8 9.2-3.2 1.8-0.86 3.8-1.4 5.7-2 4.4-1.4 8.7-2.9 13-4.2 2.5-0.73 5-1.3 7.5-1.7 8.7-1.6 18-2.1 26-2.3 2.9-0.049 5.9 0.7 8.8 1.4 3.8 0.93 7.5 2.2 11 3.3 2.7 0.77 5.4 1.4 8 2.2 3.3 1 6.5 2 9.7 3.2 8.4 3.2 17 6.3 25 9.6 5.8 2.3 12 4.4 18 5.8 8.6 2 17 3 26 2.9 2.9-0.024 5.8-0.45 8.7-0.51 4.8-0.11 9.4 0.67 14 2.1 5.7 1.8 11 4.3 16 6.9 5.8 2.9 12 5 18 6.1 5.2 0.87 10 2.3 15 3.6 7.6 1.9 15 3.4 23 3.9 3.3 0.18 6.5 0.49 9.8 0.84 0.95 0.1 1.9 0.42 2.8 0.82 3.1 1.5 3.9 3.7 2.6 6.9-1 2.5-2.8 4.3-4.9 5.8-2.6 1.8-5.4 3.1-8.5 3.9-9.1 2.6-19 3.8-28 4.6-3.7 0.34-7.5 0.56-11 0.93-1.2 0.11-2.3 0.43-3.4 0.88-2.6 1.1-5.2 2.4-7.8 3.5-3.2 1.3-6.5 2.2-10 1.8-1-0.12-2-0.37-3.1-0.61-3.4-0.81-6.8-1.7-10-2.5-0.87-0.2-1.8-0.22-2.7-0.28-8.5-0.58-12 6.6-13 12-0.041 0.62 0.033 1.3 0.14 1.9 0.29 1.6 1.1 2.7 2.8 3.2 4 1.2 8.1 1.5 12 2 8.1 1 16 2 24 3.1 5.6 0.73 11 1.4 17 0.96 3.2-0.28 6.3-1 9.2-2.5 3.4-1.7 6.8-3.3 10-4.7 2.5-1 5.2-1.7 7.7-2.6 5.8-2.1 12-3.6 18-4.6 1.9-0.33 3.7-1.6 5.5-2.5 2.2-1.2 4.4-2.4 6.6-3.6 0.3-0.17 0.6-0.35 0.89-0.55 7.5-5.4 14-12 17-20 1.2-2.7 1.9-5.7 2.7-8.5 0.21-0.76 0.062-1.7-0.073-2.5-0.71-4.2-2.9-7.6-5.9-11-2.7-2.8-6-4.7-9.4-6.4-6.4-3.3-13-6.4-19-9.6-0.81-0.4-1.7-0.74-2.4-1.2-5.8-3.8-12-7.7-17-11-1.7-1.1-3.6-1.8-5.4-2.7-0.81-0.39-1.7-0.73-2.4-1.2-4.3-2.4-5.4-7.7-2.3-12 0.98-1.2 2.3-2.3 3.6-3.1 12-8 22-18 29-31 3.2-5.4 6.5-11 9.7-16 0.95-1.5 2-3 3.2-4.4 1.3-1.5 2.2-3.2 2.9-5 3.4-9.1 5.3-19 6.1-28 1.2-13 0.62-26 0.058-39-0.21-4.8-0.5-9.6-0.52-14-8e-3 -4.1 1.2-8 3.3-11 1.1-1.9 2.8-3 5-3.4 7-1.3 14-3.5 20-6.9 1.3-0.71 3.1-0.86 4.6-0.9 2.8-0.061 5.7 0.31 8.5 0.23 6.5-0.19 13-0.44 20-0.87 7.7-0.51 13-4.9 18-11 0.51-0.65 0.89-1.4 1.2-2.2 1.5-3.3 0.96-6.2-1.6-8.8-2.5-2.5-5.4-4.1-8.6-5.4zm-101-55c-1.8 1.8-3.7 3.2-6.1 3.9-2 0.63-4 1.1-6.1 1.5-2.8 0.46-5.7 0.68-8.5 1-3.5 0.44-6.8 1.4-9.9 3.1-3.4 1.9-7 3.1-11 3.4-3.5 0.24-6.8-0.54-9.7-2.6-2.4-1.7-3.5-4.1-3.4-7 0.094-2.8 1.2-5.3 3.1-7.3 1.1-1.1 2.2-2.1 3.3-3.2 0.29-0.28 0.47-0.68 0.92-1.3-2.4 0.89-4.3 1.6-6.3 2.3-5.4 1.9-10 1-15-2.5-0.86-0.67-1.8-1.3-2.6-2-0.42 2.2-0.62 4.3-1.2 6.2-1.2 3.7-3.9 5.1-7.7 4.1-4.9-1.2-9-3.8-13-7.1-5.5-5.1-10-11-14-17-0.77-1.2-1.4-2.6-2-3.9-2.1-5.2 1.6-10 6-11 1.6-0.27 3.2-0.44 4.8-0.41 10 0.14 20 0.29 30 0.54 6.3 0.16 13 0.46 19 2.2 5.8 1.6 11 3.5 17 5.3 1.8 0.57 3.6 1.1 5.3 1.9 8.8 4.4 17 9.4 25 16 1.9 1.5 3.1 3.4 3.8 5.6 0.98 3.3 0.42 6.2-2.1 8.6z" fill="#fff"/>
</g>
</g>
</g>
<g transform="matrix(-.07 -.033 -.038 .061 231 300)" enable-background="new">
<g>
<g>
<path d="m560 214c-11-4.5-21-10-30-17-2.9-2.3-5.6-4.8-8.1-7.5-4.7-4.9-10-8.8-16-11-6.2-2.7-10-7.3-13-13-2.2-5.3-3.4-11-4.4-17-0.26-1.4-0.017-2.9 0.013-4.4 0.024-1.1 0.13-2.2 0.11-3.3-0.037-2.1-0.71-3.8-2.8-5-3-1.7-5-4.4-6.2-7.6-0.85-2.3-1.1-4.7-0.36-7.2 0.96-3.3 2-6.5 2.9-9.8 0.44-1.6 0.73-3.3 0.9-4.9 0.2-1.9-0.24-3.7-1.2-5.4-1.2-2-3.3-2.6-5.2-1.3-1.3 0.93-2.6 2.2-3.4 3.5-3.8 5.7-6.6 12-8.3 19-0.63 2.4-2 4.4-3.8 6.1-2.7 2.7-5.4 3-8.7 1.2-5.4-3-11-6-16-8.9-3.1-1.6-6.2-3.2-9.3-4.7-9.7-4.7-14-17-9.3-27 1.7-3.5 2.5-7.4 2.8-11 0.065-0.96-0.037-2-0.24-2.9-0.54-2.4-2.2-3.5-4.6-3-2.8 0.59-5.1 2.1-7 4.3-3 3.6-5 7.9-6.5 12-1.3 4-2.4 8-3.4 12-0.9 3.5-2.5 6.5-5.3 8.7-1.7 1.3-3.6 2.1-5.8 2.1-9.2 0.16-19 0.38-28-0.66-4.7-0.53-9.3-1.4-14-2.2-0.27-0.045-0.56-0.098-0.8-0.22-6-3-12-6.4-16-12-2.8-3.5-4.2-7.5-3.9-12 0.1-1.6 0.66-3.1 1.1-4.6 0.66-2.1 1.5-4.2 2.1-6.3 0.48-1.6 0.4-1.7-0.36-3.8-1.8 0.33-3.6 0.6-5.4 0.97-1.8 0.38-3.6 0.93-5.5 1.3-2.4 0.46-4.7-0.061-6.7-1.6-1.4-1.1-2.8-2.3-4-3.6-1.2-1.2-2.2-2.5-3.4-3.7-1.1-1.1-2.4-2.2-3.7-3.1-1.9-1.2-3.6-0.29-3.7 2-0.094 1.6 0.38 3.2 1.3 4.6 1.9 2.9 3.8 5.8 5.8 8.7 2 2.9 4.2 5.7 6.2 8.7 2 3 3.6 6.3 4.4 9.9 0.55 2.3 0.7 4.5-1.5 6-2.3 1.6-4.7 1.5-7.1 0.069-3.4-2-6.4-4.4-9-7.3-2.8-3.1-5.4-6.4-8.1-9.6-3-3.5-5.9-7-9-10-2-2.3-4.2-4.2-7.1-5.4-0.2-0.074-0.38-0.17-0.58-0.24-3.4-1.2-4.6-0.22-4.4 3.4 0.14 2.3 1.1 4.3 2.3 6.2 1.4 2.1 2.7 4.2 4.3 6.2 4.6 5.7 9.1 11 14 17 6.1 7.1 14 12 22 17 5.9 3 12 4.6 19 5.8 2.4 0.46 4.8 0.65 7.1 1.8 5.4 2.6 8.9 9.1 7.8 15-0.38 2.1-1.3 4-2.9 5.4-0.98 0.84-1.6 1.9-2 3.1-0.29 1.1-0.13 2.2 0.53 3.2 1.9 2.9 4.4 5 7.7 6.2 0.66 0.23 1.3 0.52 2 0.65 4.5 0.88 8.4 3.2 12 5.3 7.6 4.1 15 7.9 23 11 10 4.1 20 7.1 31 8.1 1.2 0.11 2.4 0.045 3.5 0.082 2.5 0.078 5 0.098 7.5 0.26 2.5 0.17 4.8 1.1 6.7 2.7 3.2 2.5 6.7 4.4 10 6.3 1 0.54 2.1 1.1 3.1 1.8 4 2.5 5.3 6.4 3.4 11-0.97 2.2-2.1 4.4-3.6 6.3-3.9 5-5.9 11-6.8 17-0.85 5.8-1.3 12-2 17-0.82 7.2-1.4 14-2.6 22-1.6 9.9-4.2 20-7.4 29-0.9 2.7-1.8 5.4-2.8 8.1-3.1 7.9-8.4 14-15 19-6.6 4.9-14 8.2-22 10-15 3.7-30 4.7-45 3.9-8.9-0.47-17-2.5-26-5.4-9.5-3.3-19-7.6-28-12-6.2-2.8-12-5.6-19-8-3.6-1.3-7.4-2.1-11-2.8-6.8-1.2-14-2.3-21-3.3-4.7-0.67-9.4-0.92-14-0.57-0.88 0.065-1.8 0.18-2.6 0.56-4.8 2.3-9.8 4-15 5.2-5.5 1.3-11 3.3-15 6.3-6.9 4.3-15 6.3-23 7.8-4.2 0.84-8.4 0.69-13-0.22-0.92-0.2-2-0.25-2.9-0.062-1.6 0.32-2.1 1.3-1.9 2.9 0.55 4.8 3.2 8 7.4 10 1.4 0.69 2.8 1.3 4.1 2 0.78 0.43 1.5 1 2.1 1.7 1.2 1.3 1.6 2.8 0.67 4.4-1.1 2-2.1 4.1-3.5 5.9-4.1 5.1-7.2 11-11 16-0.88 1.4-1.8 2.8-2.8 4.1-1.6 2.2-3.8 3.6-6.5 4.3-3.3 0.86-6.6 1.6-10 1.5-2.8-0.13-5.5-0.77-8.1-1.8-4.3-1.6-8.7-3-13-3.2-2.6-0.095-4.6 0.57-6.5 2.5-3.7 3.9-6.8 8.2-10 13-3.7 5.1-7.3 10-11 15-2.3 2.8-5.1 5.3-7.9 7.7-2.9 2.6-6.1 4.9-9.1 7.3-2.8 2.2-5.9 3.6-9.2 4.9-3.1 1.2-6.3 2.3-9.3 3.6-2 0.85-4 1.8-5.7 3.1-4.9 3.7-10 5.3-17 5.6-1.3 0.057-2.7 0.19-4 0.045-4.5-0.51-8.3 1.1-12 3.6-3.2 2.2-5.7 5.1-7.7 8.4-1.4 2.4-1.5 4.9-0.72 7.5 0.51 1.8 1.8 2.7 3.6 3 8.5 1.5 17 0.56 24-2.8 2.3-1 4.8-1.2 7.3-1.4 2.2-0.11 4.3-0.18 6.5-0.32 2.8-0.18 5.3-0.93 7.7-2.4 7-4.5 14-9 21-14 5.2-3.4 11-6.5 16-9.1 2-0.86 4.1-1.4 6.2-1.9 3-0.69 5.8-1.6 8.4-3.5 2.7-2 5.9-3.2 9.1-4 2.8-0.65 5.7-0.56 8.4 0.49 5.3 2 11 4 16 5.9 7 2.6 14 4.7 22 5.2 1.7 0.1 3.3 0.55 5 0.7 3.4 0.3 6.7-0.033 10-0.73 5.6-1.2 11-2.4 17-3.6 3.2-0.71 6.3-1.8 9.2-3.2 1.8-0.86 3.8-1.4 5.7-2 4.4-1.4 8.7-2.9 13-4.2 2.5-0.73 5-1.3 7.5-1.7 8.7-1.6 18-2.1 26-2.3 2.9-0.049 5.9 0.7 8.8 1.4 3.8 0.93 7.5 2.2 11 3.3 2.7 0.77 5.4 1.4 8 2.2 3.3 1 6.5 2 9.7 3.2 8.4 3.2 17 6.3 25 9.6 5.8 2.3 12 4.4 18 5.8 8.6 2 17 3 26 2.9 2.9-0.024 5.8-0.45 8.7-0.51 4.8-0.11 9.4 0.67 14 2.1 5.7 1.8 11 4.3 16 6.9 5.8 2.9 12 5 18 6.1 5.2 0.87 10 2.3 15 3.6 7.6 1.9 15 3.4 23 3.9 3.3 0.18 6.5 0.49 9.8 0.84 0.95 0.1 1.9 0.42 2.8 0.82 3.1 1.5 3.9 3.7 2.6 6.9-1 2.5-2.8 4.3-4.9 5.8-2.6 1.8-5.4 3.1-8.5 3.9-9.1 2.6-19 3.8-28 4.6-3.7 0.34-7.5 0.56-11 0.93-1.2 0.11-2.3 0.43-3.4 0.88-2.6 1.1-5.2 2.4-7.8 3.5-3.2 1.3-6.5 2.2-10 1.8-1-0.12-2-0.37-3.1-0.61-3.4-0.81-6.8-1.7-10-2.5-0.87-0.2-1.8-0.22-2.7-0.28-8.5-0.58-12 6.6-13 12-0.041 0.62 0.033 1.3 0.14 1.9 0.29 1.6 1.1 2.7 2.8 3.2 4 1.2 8.1 1.5 12 2 8.1 1 16 2 24 3.1 5.6 0.73 11 1.4 17 0.96 3.2-0.28 6.3-1 9.2-2.5 3.4-1.7 6.8-3.3 10-4.7 2.5-1 5.2-1.7 7.7-2.6 5.8-2.1 12-3.6 18-4.6 1.9-0.33 3.7-1.6 5.5-2.5 2.2-1.2 4.4-2.4 6.6-3.6 0.3-0.17 0.6-0.35 0.89-0.55 7.5-5.4 14-12 17-20 1.2-2.7 1.9-5.7 2.7-8.5 0.21-0.76 0.062-1.7-0.073-2.5-0.71-4.2-2.9-7.6-5.9-11-2.7-2.8-6-4.7-9.4-6.4-6.4-3.3-13-6.4-19-9.6-0.81-0.4-1.7-0.74-2.4-1.2-5.8-3.8-12-7.7-17-11-1.7-1.1-3.6-1.8-5.4-2.7-0.81-0.39-1.7-0.73-2.4-1.2-4.3-2.4-5.4-7.7-2.3-12 0.98-1.2 2.3-2.3 3.6-3.1 12-8 22-18 29-31 3.2-5.4 6.5-11 9.7-16 0.95-1.5 2-3 3.2-4.4 1.3-1.5 2.2-3.2 2.9-5 3.4-9.1 5.3-19 6.1-28 1.2-13 0.62-26 0.058-39-0.21-4.8-0.5-9.6-0.52-14-8e-3 -4.1 1.2-8 3.3-11 1.1-1.9 2.8-3 5-3.4 7-1.3 14-3.5 20-6.9 1.3-0.71 3.1-0.86 4.6-0.9 2.8-0.061 5.7 0.31 8.5 0.23 6.5-0.19 13-0.44 20-0.87 7.7-0.51 13-4.9 18-11 0.51-0.65 0.89-1.4 1.2-2.2 1.5-3.3 0.96-6.2-1.6-8.8-2.5-2.5-5.4-4.1-8.6-5.4zm-101-55c-1.8 1.8-3.7 3.2-6.1 3.9-2 0.63-4 1.1-6.1 1.5-2.8 0.46-5.7 0.68-8.5 1-3.5 0.44-6.8 1.4-9.9 3.1-3.4 1.9-7 3.1-11 3.4-3.5 0.24-6.8-0.54-9.7-2.6-2.4-1.7-3.5-4.1-3.4-7 0.094-2.8 1.2-5.3 3.1-7.3 1.1-1.1 2.2-2.1 3.3-3.2 0.29-0.28 0.47-0.68 0.92-1.3-2.4 0.89-4.3 1.6-6.3 2.3-5.4 1.9-10 1-15-2.5-0.86-0.67-1.8-1.3-2.6-2-0.42 2.2-0.62 4.3-1.2 6.2-1.2 3.7-3.9 5.1-7.7 4.1-4.9-1.2-9-3.8-13-7.1-5.5-5.1-10-11-14-17-0.77-1.2-1.4-2.6-2-3.9-2.1-5.2 1.6-10 6-11 1.6-0.27 3.2-0.44 4.8-0.41 10 0.14 20 0.29 30 0.54 6.3 0.16 13 0.46 19 2.2 5.8 1.6 11 3.5 17 5.3 1.8 0.57 3.6 1.1 5.3 1.9 8.8 4.4 17 9.4 25 16 1.9 1.5 3.1 3.4 3.8 5.6 0.98 3.3 0.42 6.2-2.1 8.6z"/>
</g>
</g>
</g>
<g transform="matrix(.072 -.02 .02 .072 -62 334)">
<path d="m27 277c34 5.1 112-23 132-41 20-18 28-2.4 26 7.7-2.1 7.4 2.7 12 5.5 14 0.91 0.66 2.5 1.6 3.3 2.3 30 24 15 48 7.7 58-7.6 10 22 20 45 43 0.81 0.78 2.4 1.4 3.5 1.4 23-0.11 31 2.9 33 4.1 0 0 0.18 0.11 0.41 0.24 0.22 0.13-0.13 0.99-0.54 2-2.7 6.8-1.3 22-2 27-0.8 6.4-6.7 5.1-5.1 10 1.6 5.1 17 12 23 14 4.3 1.8 12-2.3 16-4.3 0.98-0.55 2.7-0.8 3.8-0.71 2.4 0.18 6.4-0.22 8.4-4.3 2.9-6.1-8.5-6.1-15-14-4.8-5.6-1.2-13 0.93-16 0.62-0.94 2.1-1.5 3.2-1.3 31 4.7 38-3.6 57-31 19-28 20 11 40-20 20-30 35 6.4 31-16-3.4-20 14-19 17-13 0.6 0.96 0.86 2.8 0.89 3.9 0.064 3.4-1 5.7-2 7.1-0.65 0.92-0.52 1.2 0.5 0.67 21-10 11-26 21-27 11-1.1 25-9.1 29-15 4.8-5.9 5.3-21 34-8.5 24 10 19-11 17-18-0.36-1.1 0.2-2.2 1.2-2.7 9.2-4.7 4.1-19 6.6-21 2.7-2.1 9.1-13 2.7-14-6.4-1.5-47-10-53-29-5.9-19-45-30-32-22 13 8.3 2.7 8.2-36 1.8-39-6.4-9.1 6.4-23 5.3-14-1.1-41 12-24 8 17-3.7 18 27-13 9.2-31-18-60 10-47 3.1 12-6.9 39 0 20 0s-5.3 11-9.4 15c-2.5 2.9-2 5.5-1.2 7 0.5 1 0.39 2.1-0.63 2.6-5.2 2.5-21 8.1-40-5.2-23-16-87-36-197 29-100 59-102 5.6-101-5.8 0.061-1.1-0.74-2.2-1.9-2.1-17 1.2-18 47 15 52zm288 37c11 4 2.7 10 0 11-2.7 0.54-23-8-24-15-0.53-6.9-4.3-13-4.3-13 5.3 4.3 17 14 28 18zm-69-5.9c2.1-5.9 7.1-9.2 7.1-9.2s1.8 12-0.89 17c-2.7 4.8 2 22 18 20 16-2 31 11 31 11-3.9 3.7-7.5 10-7.5 10s-1.1-16-22-15c-21 0.89-30-16-30-16s2.1-12 4.3-18z"/>
</g>
<g transform="matrix(-.072 -.02 -.02 .072 280 339)" enable-background="new" fill="#fff">
<g fill="#fff">
<g fill="#fff">
<path d="m27 277c34 5.1 112-23 132-41 20-18 28-2.4 26 7.7-2.1 7.4 2.7 12 5.5 14 0.91 0.66 2.5 1.6 3.3 2.3 30 24 15 48 7.7 58-7.6 10 22 20 45 43 0.81 0.78 2.4 1.4 3.5 1.4 23-0.11 31 2.9 33 4.1 0 0 0.18 0.11 0.41 0.24 0.22 0.13-0.13 0.99-0.54 2-2.7 6.8-1.3 22-2 27-0.8 6.4-6.7 5.1-5.1 10 1.6 5.1 17 12 23 14 4.3 1.8 12-2.3 16-4.3 0.98-0.55 2.7-0.8 3.8-0.71 2.4 0.18 6.4-0.22 8.4-4.3 2.9-6.1-8.5-6.1-15-14-4.8-5.6-1.2-13 0.93-16 0.62-0.94 2.1-1.5 3.2-1.3 31 4.7 38-3.6 57-31 19-28 20 11 40-20 20-30 35 6.4 31-16-3.4-20 14-19 17-13 0.6 0.96 0.86 2.8 0.89 3.9 0.064 3.4-1 5.7-2 7.1-0.65 0.92-0.52 1.2 0.5 0.67 21-10 11-26 21-27 11-1.1 25-9.1 29-15 4.8-5.9 5.3-21 34-8.5 24 10 19-11 17-18-0.36-1.1 0.2-2.2 1.2-2.7 9.2-4.7 4.1-19 6.6-21 2.7-2.1 9.1-13 2.7-14-6.4-1.5-47-10-53-29-5.9-19-45-30-32-22 13 8.3 2.7 8.2-36 1.8-39-6.4-9.1 6.4-23 5.3-14-1.1-41 12-24 8 17-3.7 18 27-13 9.2-31-18-60 10-47 3.1 12-6.9 39 0 20 0s-5.3 11-9.4 15c-2.5 2.9-2 5.5-1.2 7 0.5 1 0.39 2.1-0.63 2.6-5.2 2.5-21 8.1-40-5.2-23-16-87-36-197 29-100 59-102 5.6-101-5.8 0.061-1.1-0.74-2.2-1.9-2.1-17 1.2-18 47 15 52zm288 37c11 4 2.7 10 0 11-2.7 0.54-23-8-24-15-0.53-6.9-4.3-13-4.3-13 5.3 4.3 17 14 28 18zm-69-5.9c2.1-5.9 7.1-9.2 7.1-9.2s1.8 12-0.89 17c-2.7 4.8 2 22 18 20 16-2 31 11 31 11-3.9 3.7-7.5 10-7.5 10s-1.1-16-22-15c-21 0.89-30-16-30-16s2.1-12 4.3-18z" fill="#fff"/>
</g>
</g>
</g>
<g transform="matrix(.81 -.061 .1 .47 232 201)" enable-background="new">
<path d="m14 95c-0.095-0.065-0.21-0.12-0.25-0.12-0.22-8e-3 -0.53-0.56-0.67-1.2-0.05-0.22-0.11-0.4-0.14-0.39-0.027 9e-3 -0.076 0.23-0.11 0.48-0.069 0.56-0.066 0.55-0.12 0.39-0.063-0.2-0.054-0.8 0.025-1.7 0.079-0.91 0.1-1.1 0.3-2.7 0.072-0.58 0.12-1.1 0.099-1.1-0.13-0.13-0.33 0.75-0.52 2.2-0.029 0.23-0.066 0.43-0.084 0.46-0.089 0.14-0.67-0.63-1-1.3-0.22-0.47-0.24-0.5-0.29-0.39-0.027 0.068-0.063 0.27-0.081 0.44-0.018 0.18-0.047 0.43-0.064 0.57l-0.032 0.25-0.039-0.2c-0.057-0.29 0.041-1.2 0.23-2.2 0.093-0.48 0.17-0.91 0.17-0.96 0-0.082-0.0088-0.085-0.066-0.022-0.11 0.13-0.26 0.59-0.43 1.4-0.088 0.41-0.22 1-0.3 1.4-0.077 0.34-0.17 0.75-0.2 0.92-0.08 0.42-0.12 0.46-0.24 0.31-0.17-0.2-0.44-0.75-0.59-1.2-0.18-0.53-0.19-0.54-0.36-0.54-0.08 0-0.15-0.017-0.15-0.037 0.0014-0.21 0.54-2 1.1-3.7 0.28-0.83 0.34-1.1 0.27-1.1-0.015 0-0.071 0.023-0.12 0.051-0.11 0.061-0.24 0.31-0.59 1.1-0.14 0.34-0.85 1.8-1.6 3.2-1.2 2.4-1.3 2.6-1.5 2.7-0.13 0.094-0.2 0.18-0.2 0.25 0 0.15-0.11 0.24-0.28 0.22-0.16-0.019-0.2-0.13-0.21-0.52-0.0029-0.14-0.026-0.26-0.052-0.26-0.026 0-0.13 0.15-0.23 0.32-0.54 0.97 0.0057-0.6 0.69-2 0.31-0.62 0.69-1.4 0.84-1.7 0.15-0.29 0.43-0.82 0.62-1.2 0.19-0.37 0.57-1.1 0.84-1.6 0.72-1.4 2.3-4.5 2.3-4.7 0.029-0.14 0.025-0.15-0.077-0.096-0.059 0.032-0.22 0.23-0.37 0.43-0.94 1.4-1.4 1.9-2.2 2.7-1.2 1.2-1.8 1.5-3.3 1.8-0.47 0.096-0.66 0.12-0.77 0.081l-0.15-0.047 0.35-0.16c0.19-0.088 0.54-0.25 0.77-0.36 1.8-0.85 4.4-3.5 6.5-6.5 0.22-0.33 0.65-1 0.97-1.6 0.32-0.55 0.72-1.2 0.89-1.5 0.17-0.27 0.56-0.96 0.86-1.5 0.3-0.58 0.71-1.3 0.91-1.7 0.76-1.3 1.9-2.8 2.9-3.9 0.21-0.22 0.6-0.66 0.88-0.99 0.27-0.33 0.71-0.8 0.96-1.1 0.45-0.46 0.57-0.54 1.4-1 0.39-0.23 1.1-0.68 2.6-1.6 1.2-0.75 2.8-1.7 3.7-2.3 0.49-0.32 1-0.64 1.2-0.73 0.15-0.085 0.48-0.29 0.74-0.46 0.26-0.17 0.58-0.37 0.72-0.45 0.22-0.13 0.62-0.39 1.9-1.3 0.61-0.41 1.3-1.1 1.8-1.8 0.58-0.84 0.68-1.1 0.55-1.6-0.072-0.26-0.17-0.34-0.38-0.33-0.17 0.014-0.18 0.026-0.23 0.26l-0.055 0.25-0.086-0.2c-0.37-0.84-0.13-1.5 0.66-1.9 0.18-0.084 0.42-0.25 0.54-0.36 0.4-0.38 0.74-0.55 1.4-0.68 0.26-0.054 1.5-0.51 1.6-0.59 0.027-0.021 0.32-0.17 0.64-0.34 0.95-0.48 1.6-1 2.3-1.9 0.39-0.51 1.1-1.8 2.4-4.4 1.7-3.3 2.1-4.1 2.6-5.3 0.13-0.3 0.37-0.81 0.53-1.1 0.16-0.33 0.38-0.8 0.48-1.1 0.1-0.26 0.23-0.55 0.28-0.65 0.14-0.27 0.49-0.66 0.88-0.97 0.19-0.16 0.54-0.51 0.78-0.78 2.1-2.4 2.7-3 4.9-4.6 0.48-0.35 1.1-0.83 1.4-1.1 0.28-0.23 0.75-0.6 1-0.82 0.3-0.22 0.75-0.58 1-0.78 0.26-0.21 0.7-0.54 0.98-0.74 0.29-0.2 0.74-0.56 1-0.79 0.89-0.76 4.4-4.3 6.1-6.2 0.67-0.73 0.83-0.89 0.9-0.89 0.085 0 0.049 0.16-0.13 0.56-0.37 0.83-0.52 1.1-0.72 1.3-0.11 0.12-0.46 0.51-0.77 0.86-0.5 0.57-1 1.1-2 2-0.16 0.15-0.27 0.27-0.26 0.29 0.11 0.11 2.5-1.7 4.9-3.7 0.88-0.73 1.4-1.1 3.7-3.1 0.82-0.7 1.6-1.2 1.8-1.3 0.12-0.044 0.16 0.053 0.068 0.16-0.043 0.048-0.079 0.13-0.079 0.17 0 0.1-0.08 0.27-0.2 0.4-0.047 0.054-0.1 0.15-0.12 0.22-0.067 0.27-0.73 1-1.7 1.9-1.1 1-1.9 1.7-3.3 2.7-0.35 0.25-0.79 0.58-0.98 0.73-0.19 0.15-0.72 0.52-1.2 0.83-0.78 0.52-1 0.73-0.78 0.73 0.05-5.3e-4 0.25-0.085 0.44-0.19 0.19-0.1 0.55-0.29 0.79-0.43s0.68-0.37 0.96-0.52c0.64-0.35 1.3-0.71 2.3-1.2 0.44-0.22 0.8-0.43 0.81-0.45 0.0092-0.023 0.047-0.042 0.084-0.042 0.037 0 0.31-0.12 0.6-0.27 0.59-0.29 1.4-0.65 1.6-0.7 0.078-0.02 0.19-0.0038 0.27 0.04 0.078 0.04 0.34 0.088 0.59 0.11 0.52 0.04 0.8 0.1 0.83 0.19 0.033 0.098-0.073 0.38-0.14 0.38-0.035 0-0.077 0.023-0.094 0.051-0.02 0.033 0.042 0.04 0.18 0.021 0.19-0.026 0.52-0.14 1.3-0.47 0.38-0.15 0.98-0.3 1.2-0.29 0.14 0.014 0.16 0.037 0.21 0.24 0.12 0.5 0.12 0.54 0.018 0.57-0.053 0.017-0.097 0.063-0.097 0.1 0 0.04-0.033 0.085-0.074 0.1-0.041 0.016-0.074 0.082-0.074 0.15 0 0.084-0.028 0.12-0.096 0.12-0.053 0-0.11 0.02-0.12 0.044-0.015 0.024-0.21 0.12-0.44 0.21-0.55 0.22-1.8 0.78-2.4 1.1-0.26 0.12-0.67 0.31-0.91 0.4-0.24 0.099-0.74 0.32-1.1 0.49-0.37 0.17-0.8 0.37-0.96 0.44-0.16 0.071-0.28 0.14-0.27 0.15 0.028 0.028 0.93-0.21 1.7-0.46 0.35-0.11 0.74-0.23 0.87-0.26 0.12-0.031 0.53-0.14 0.91-0.25 1.1-0.3 2.2-0.55 2.7-0.61 0.42-0.053 0.44-0.051 0.54 0.052 0.093 0.093 0.099 0.12 0.045 0.22-0.034 0.064-0.13 0.14-0.22 0.16-0.12 0.037-0.17 0.085-0.21 0.23-0.029 0.1-0.076 0.2-0.1 0.22-0.071 0.046-0.17 0.23-0.17 0.32 0 0.19-0.22 0.32-0.77 0.45-0.79 0.19-1.3 0.34-2.1 0.67-0.41 0.17-0.81 0.33-0.9 0.36-0.23 0.086-0.34 0.21-0.27 0.29 0.063 0.063 0.21 0.037 1.9-0.33 0.33-0.071 0.74-0.16 0.91-0.2 0.39-0.084 1-0.093 1.1-0.016 0.077 0.077 0.02 0.38-0.11 0.56-0.17 0.24-0.52 0.62-0.9 0.97-0.37 0.34-0.91 0.65-1.6 0.93-0.4 0.16-1.2 0.53-1.2 0.59-0.021 0.021 0.018 0.14 0.087 0.27 0.068 0.13 0.12 0.31 0.12 0.39-0.0016 0.2-0.19 0.66-0.37 0.9-0.37 0.5-1 1.1-1.3 1.1-0.3 0-0.96-0.23-1.7-0.57-0.45-0.22-0.81-0.37-0.91-0.37-0.14 0-0.15 0.01-0.092 0.077 0.035 0.043 0.22 0.18 0.41 0.3 0.19 0.12 0.53 0.36 0.75 0.53 0.22 0.17 0.49 0.37 0.61 0.44 0.12 0.076 0.21 0.15 0.21 0.17 0 0.057-0.77 0.3-0.95 0.3-0.097 0-0.3 0.056-0.46 0.12-0.22 0.095-0.36 0.12-0.64 0.12-0.21 0-0.46 0.034-0.58 0.078-0.12 0.044-0.45 0.088-0.76 0.1-0.49 0.021-1 0.11-1.8 0.29-0.14 0.033-0.38 0.12-0.54 0.19-0.16 0.074-0.42 0.19-0.58 0.26-0.29 0.13-0.83 0.63-0.83 0.76 0.0016 0.038 0.11 0.12 0.25 0.18 0.21 0.097 0.25 0.14 0.28 0.29 0.036 0.19 0.12 0.25 0.58 0.39 0.65 0.2 1.1 0.89 0.77 1.3-0.055 0.068-0.18 0.24-0.27 0.38-0.095 0.14-0.26 0.31-0.37 0.39-0.23 0.16-0.25 0.3-0.081 0.5 0.28 0.34 0.3 0.61 0.079 1.1-0.2 0.4-0.47 0.68-0.88 0.93-0.19 0.11-0.35 0.23-0.36 0.27-0.014 0.037-0.0082 0.16 0.013 0.28 0.046 0.25 0.0097 0.42-0.18 0.85-0.16 0.34-0.49 0.69-0.86 0.9-0.17 0.096-0.2 0.14-0.24 0.38-0.12 0.62-0.35 1.1-0.7 1.3-0.16 0.13-0.29 0.27-0.31 0.33-0.012 0.054-0.049 0.23-0.08 0.39-0.11 0.52-0.61 1.3-1 1.5-0.18 0.1-0.19 0.12-0.19 0.37 0 0.66-0.36 1.4-1.1 2.1-0.27 0.27-0.4 0.45-0.4 0.52 0 0.3-0.36 1.1-0.7 1.5-0.11 0.13-0.25 0.39-0.32 0.59-0.07 0.2-0.17 0.48-0.22 0.62-0.12 0.34-0.18 0.46-0.34 0.63-0.17 0.19-0.46 0.72-0.54 1-0.067 0.23-0.35 0.58-0.51 0.63-0.053 0.017-0.14 0.12-0.2 0.24-0.057 0.11-0.19 0.32-0.29 0.45-0.1 0.14-0.22 0.32-0.27 0.4-0.045 0.086-0.21 0.32-0.37 0.52-0.16 0.2-0.33 0.44-0.37 0.54-0.093 0.22-0.32 0.39-0.72 0.54l-0.31 0.11-1-0.53-0.15 0.14c-0.083 0.08-0.17 0.19-0.18 0.25-0.099 0.31-0.82 0.87-1.1 0.87-0.099 0-0.12 0.031-0.15 0.21-0.017 0.12-0.0084 0.29 0.019 0.38 0.078 0.27 0.057 0.65-0.048 0.88-0.053 0.12-0.084 0.24-0.07 0.28 0.035 0.091 0.54 0.44 0.78 0.54 0.1 0.043 0.35 0.1 0.54 0.13 1 0.14 2.4 0.63 3.2 1.2 0.24 0.15 0.74 0.37 2.1 0.89 0.76 0.3 0.94 0.39 0.78 0.39-0.18 0-0.073 0.092 0.17 0.15 0.28 0.068 0.79 0.26 1.3 0.49 0.86 0.39 2.7 1.1 3.5 1.3 0.27 0.077 0.92 0.25 1.4 0.39 1.6 0.41 1.9 0.54 1.9 0.94 0 0.29-0.076 0.44-0.22 0.44-0.18 0-0.26 0.12-0.19 0.28 0.051 0.11 0.042 0.15-0.066 0.29-0.16 0.21-0.73 0.53-0.99 0.56-0.26 0.03-0.58-0.072-1.3-0.41-0.46-0.22-0.61-0.27-1-0.32-0.53-0.064-0.58-0.085-0.9-0.39-0.21-0.19-0.26-0.22-0.39-0.19-0.32 0.064-0.35 0.17-0.19 0.69 0.1 0.32 0.1 0.33 0.69 0.8 0.69 0.55 0.85 0.76 0.83 1.1-0.014 0.2-0.032 0.22-0.21 0.31l-0.2 0.092 0.33 0.27-0.1 0.29c-0.057 0.16-0.13 0.31-0.16 0.33-0.034 0.019-0.16 0.13-0.28 0.24-0.28 0.25-0.39 0.25-0.77 0.022-0.16-0.099-0.36-0.21-0.44-0.26-0.082-0.042-0.28-0.16-0.44-0.26-0.27-0.17-0.3-0.18-0.31-0.093-0.024 0.15 0.18 0.5 0.45 0.78 0.21 0.21 0.24 0.27 0.18 0.31-0.041 0.026-0.12 0.047-0.19 0.048-0.13 0.0013-0.14 0.097-0.037 0.4 0.1 0.29 0.095 0.37-0.068 0.71-0.11 0.22-0.24 0.38-0.5 0.62-0.2 0.18-0.41 0.35-0.47 0.4-0.06 0.041-0.19 0.17-0.29 0.3-0.22 0.26-0.9 0.63-1.3 0.7-0.29 0.05-0.35 0.12-0.4 0.45-0.07 0.51-0.53 1-1.3 1.4-0.25 0.14-0.48 0.11-0.65-0.062-0.078-0.082-0.17-0.15-0.2-0.15-0.03 0-0.12 0.14-0.21 0.31-0.2 0.39-0.84 1.2-1.1 1.3-0.17 0.1-0.2 0.14-0.23 0.35-0.019 0.13-0.077 0.32-0.13 0.43-0.093 0.19-0.15 0.28-0.52 0.8-0.2 0.29-0.65 0.76-0.72 0.76-0.026 0-0.17 0.056-0.31 0.13-0.15 0.069-0.37 0.14-0.51 0.15-0.21 0.025-0.26 0.012-0.39-0.1-0.2-0.17-0.28-0.34-0.57-1.3-0.14-0.44-0.35-1-0.49-1.3-1-2.1-1.3-2.6-1.5-3-0.14-0.22-0.27-0.48-0.3-0.57-0.031-0.088-0.086-0.16-0.12-0.16-0.072 0-0.75-1.3-0.91-1.8-0.051-0.15-0.12-0.26-0.14-0.26-0.028 0.0057-0.12-0.18-0.2-0.41-0.19-0.52-0.43-1-0.51-1-0.061 0-0.013 0.63 0.063 0.83 0.14 0.37-0.19-0.042-0.53-0.66-0.44-0.81-1.1-2.5-1.2-3-0.043-0.21-0.092-0.54-0.11-0.74-0.018-0.2-0.077-0.47-0.13-0.6-0.11-0.27-0.034-0.25-0.73-0.13-0.15 0.027-0.57 0.066-0.94 0.088-0.37 0.021-0.7 0.056-0.73 0.077-0.11 0.069 0.013 0.19 0.59 0.54 0.34 0.22 0.61 0.42 0.67 0.52 0.18 0.26 0.23 0.51 0.16 0.82-0.064 0.31-0.23 0.48-0.8 0.86-0.61 0.41-0.83 0.63-0.88 0.91-0.051 0.28-0.24 0.57-0.46 0.7-0.089 0.051-0.23 0.15-0.31 0.23-0.082 0.076-0.29 0.22-0.47 0.33-0.23 0.14-0.33 0.23-0.36 0.33-0.05 0.19-0.27 0.41-0.47 0.47-0.09 0.03-0.31 0.15-0.49 0.27-0.18 0.12-0.44 0.26-0.57 0.31-0.19 0.067-0.26 0.12-0.31 0.24-0.1 0.24-0.31 0.45-0.55 0.57-0.13 0.059-0.31 0.16-0.42 0.23-0.11 0.066-0.36 0.18-0.58 0.25-0.42 0.14-0.46 0.17-0.46 0.39-0.0064 0.52-0.67 1.2-1.7 1.7-0.17 0.08-0.24 0.15-0.26 0.24-0.088 0.43-0.91 1.1-1.7 1.3-0.33 0.11-0.45 0.17-0.52 0.28-0.13 0.19-0.49 0.56-0.54 0.56-0.022 0-0.12 0.052-0.22 0.12-0.26 0.16-0.6 0.28-0.91 0.32l-0.26 0.032-0.28 0.43c-0.18 0.28-0.34 0.46-0.45 0.51-0.089 0.046-0.2 0.12-0.24 0.17-0.041 0.046-0.17 0.13-0.28 0.19-0.26 0.13-0.78 0.14-1.1 0.026-0.29-0.099-0.3-0.091-0.54 0.46-0.25 0.57-0.41 0.81-0.76 1.1-0.56 0.5-0.75 0.53-1.3 0.23-0.23-0.12-0.4-0.18-0.44-0.16-0.067 0.037-0.71 0.74-0.98 1.1-0.16 0.2-0.44 0.3-0.7 0.25-0.19-0.036-0.41-0.23-0.95-0.84l-0.3-0.35-0.29 0.15c-0.24 0.13-0.31 0.2-0.45 0.44-0.2 0.36-0.36 0.85-0.36 1.1 0 0.089 0.025 0.25 0.054 0.36 0.029 0.11 0.058 0.46 0.065 0.79 0.01 0.5 0.039 0.69 0.17 1.2 0.15 0.52 0.16 0.64 0.18 1.4 0.024 1.2-0.2 2.4-0.6 3.1-0.27 0.52-0.25 0.52-0.65-0.0073-0.19-0.25-0.41-0.54-0.48-0.63-0.069-0.09-0.15-0.15-0.18-0.14-0.083 0.027-0.17 0.43-0.23 1-0.054 0.55-0.15 0.9-0.47 1.7-0.092 0.23-0.17 0.46-0.17 0.51 0 0.14-0.12 0.11-0.22-0.062-0.05-0.085-0.31-0.38-0.57-0.66-0.26-0.28-0.54-0.61-0.62-0.73-0.081-0.13-0.18-0.25-0.21-0.26-0.036-0.014-0.12 0.036-0.19 0.11-0.13 0.14-0.46 0.8-0.46 0.92 0 0.039-0.055 0.17-0.12 0.3-0.16 0.3-0.89 2.5-0.99 2.9-0.042 0.2-0.078 0.51-0.08 0.69-0.0057 0.36-0.046 0.56-0.12 0.58-0.026 0.0072-0.13-0.04-0.22-0.1z" stroke-width=".049"/>
</g>
<g transform="matrix(-.81 -.067 -.1 .52 -35 199)" enable-background="new" fill="#fff">
<path d="m14 95c-0.095-0.065-0.21-0.12-0.25-0.12-0.22-8e-3 -0.53-0.56-0.67-1.2-0.05-0.22-0.11-0.4-0.14-0.39-0.027 9e-3 -0.076 0.23-0.11 0.48-0.069 0.56-0.066 0.55-0.12 0.39-0.063-0.2-0.054-0.8 0.025-1.7 0.079-0.91 0.1-1.1 0.3-2.7 0.072-0.58 0.12-1.1 0.099-1.1-0.13-0.13-0.33 0.75-0.52 2.2-0.029 0.23-0.066 0.43-0.084 0.46-0.089 0.14-0.67-0.63-1-1.3-0.22-0.47-0.24-0.5-0.29-0.39-0.027 0.068-0.063 0.27-0.081 0.44-0.018 0.18-0.047 0.43-0.064 0.57l-0.032 0.25-0.039-0.2c-0.057-0.29 0.041-1.2 0.23-2.2 0.093-0.48 0.17-0.91 0.17-0.96 0-0.082-0.0088-0.085-0.066-0.022-0.11 0.13-0.26 0.59-0.43 1.4-0.088 0.41-0.22 1-0.3 1.4-0.077 0.34-0.17 0.75-0.2 0.92-0.08 0.42-0.12 0.46-0.24 0.31-0.17-0.2-0.44-0.75-0.59-1.2-0.18-0.53-0.19-0.54-0.36-0.54-0.08 0-0.15-0.017-0.15-0.037 0.0014-0.21 0.54-2 1.1-3.7 0.28-0.83 0.34-1.1 0.27-1.1-0.015 0-0.071 0.023-0.12 0.051-0.11 0.061-0.24 0.31-0.59 1.1-0.14 0.34-0.85 1.8-1.6 3.2-1.2 2.4-1.3 2.6-1.5 2.7-0.13 0.094-0.2 0.18-0.2 0.25 0 0.15-0.11 0.24-0.28 0.22-0.16-0.019-0.2-0.13-0.21-0.52-0.0029-0.14-0.026-0.26-0.052-0.26-0.026 0-0.13 0.15-0.23 0.32-0.54 0.97 0.0057-0.6 0.69-2 0.31-0.62 0.69-1.4 0.84-1.7 0.15-0.29 0.43-0.82 0.62-1.2 0.19-0.37 0.57-1.1 0.84-1.6 0.72-1.4 2.3-4.5 2.3-4.7 0.029-0.14 0.025-0.15-0.077-0.096-0.059 0.032-0.22 0.23-0.37 0.43-0.94 1.4-1.4 1.9-2.2 2.7-1.2 1.2-1.8 1.5-3.3 1.8-0.47 0.096-0.66 0.12-0.77 0.081l-0.15-0.047 0.35-0.16c0.19-0.088 0.54-0.25 0.77-0.36 1.8-0.85 4.4-3.5 6.5-6.5 0.22-0.33 0.65-1 0.97-1.6 0.32-0.55 0.72-1.2 0.89-1.5 0.17-0.27 0.56-0.96 0.86-1.5 0.3-0.58 0.71-1.3 0.91-1.7 0.76-1.3 1.9-2.8 2.9-3.9 0.21-0.22 0.6-0.66 0.88-0.99 0.27-0.33 0.71-0.8 0.96-1.1 0.45-0.46 0.57-0.54 1.4-1 0.39-0.23 1.1-0.68 2.6-1.6 1.2-0.75 2.8-1.7 3.7-2.3 0.49-0.32 1-0.64 1.2-0.73 0.15-0.085 0.48-0.29 0.74-0.46 0.26-0.17 0.58-0.37 0.72-0.45 0.22-0.13 0.62-0.39 1.9-1.3 0.61-0.41 1.3-1.1 1.8-1.8 0.58-0.84 0.68-1.1 0.55-1.6-0.072-0.26-0.17-0.34-0.38-0.33-0.17 0.014-0.18 0.026-0.23 0.26l-0.055 0.25-0.086-0.2c-0.37-0.84-0.13-1.5 0.66-1.9 0.18-0.084 0.42-0.25 0.54-0.36 0.4-0.38 0.74-0.55 1.4-0.68 0.26-0.054 1.5-0.51 1.6-0.59 0.027-0.021 0.32-0.17 0.64-0.34 0.95-0.48 1.6-1 2.3-1.9 0.39-0.51 1.1-1.8 2.4-4.4 1.7-3.3 2.1-4.1 2.6-5.3 0.13-0.3 0.37-0.81 0.53-1.1 0.16-0.33 0.38-0.8 0.48-1.1 0.1-0.26 0.23-0.55 0.28-0.65 0.14-0.27 0.49-0.66 0.88-0.97 0.19-0.16 0.54-0.51 0.78-0.78 2.1-2.4 2.7-3 4.9-4.6 0.48-0.35 1.1-0.83 1.4-1.1 0.28-0.23 0.75-0.6 1-0.82 0.3-0.22 0.75-0.58 1-0.78 0.26-0.21 0.7-0.54 0.98-0.74 0.29-0.2 0.74-0.56 1-0.79 0.89-0.76 4.4-4.3 6.1-6.2 0.67-0.73 0.83-0.89 0.9-0.89 0.085 0 0.049 0.16-0.13 0.56-0.37 0.83-0.52 1.1-0.72 1.3-0.11 0.12-0.46 0.51-0.77 0.86-0.5 0.57-1 1.1-2 2-0.16 0.15-0.27 0.27-0.26 0.29 0.11 0.11 2.5-1.7 4.9-3.7 0.88-0.73 1.4-1.1 3.7-3.1 0.82-0.7 1.6-1.2 1.8-1.3 0.12-0.044 0.16 0.053 0.068 0.16-0.043 0.048-0.079 0.13-0.079 0.17 0 0.1-0.08 0.27-0.2 0.4-0.047 0.054-0.1 0.15-0.12 0.22-0.067 0.27-0.73 1-1.7 1.9-1.1 1-1.9 1.7-3.3 2.7-0.35 0.25-0.79 0.58-0.98 0.73-0.19 0.15-0.72 0.52-1.2 0.83-0.78 0.52-1 0.73-0.78 0.73 0.05-5.3e-4 0.25-0.085 0.44-0.19 0.19-0.1 0.55-0.29 0.79-0.43s0.68-0.37 0.96-0.52c0.64-0.35 1.3-0.71 2.3-1.2 0.44-0.22 0.8-0.43 0.81-0.45 0.0092-0.023 0.047-0.042 0.084-0.042 0.037 0 0.31-0.12 0.6-0.27 0.59-0.29 1.4-0.65 1.6-0.7 0.078-0.02 0.19-0.0038 0.27 0.04 0.078 0.04 0.34 0.088 0.59 0.11 0.52 0.04 0.8 0.1 0.83 0.19 0.033 0.098-0.073 0.38-0.14 0.38-0.035 0-0.077 0.023-0.094 0.051-0.02 0.033 0.042 0.04 0.18 0.021 0.19-0.026 0.52-0.14 1.3-0.47 0.38-0.15 0.98-0.3 1.2-0.29 0.14 0.014 0.16 0.037 0.21 0.24 0.12 0.5 0.12 0.54 0.018 0.57-0.053 0.017-0.097 0.063-0.097 0.1 0 0.04-0.033 0.085-0.074 0.1-0.041 0.016-0.074 0.082-0.074 0.15 0 0.084-0.028 0.12-0.096 0.12-0.053 0-0.11 0.02-0.12 0.044-0.015 0.024-0.21 0.12-0.44 0.21-0.55 0.22-1.8 0.78-2.4 1.1-0.26 0.12-0.67 0.31-0.91 0.4-0.24 0.099-0.74 0.32-1.1 0.49-0.37 0.17-0.8 0.37-0.96 0.44-0.16 0.071-0.28 0.14-0.27 0.15 0.028 0.028 0.93-0.21 1.7-0.46 0.35-0.11 0.74-0.23 0.87-0.26 0.12-0.031 0.53-0.14 0.91-0.25 1.1-0.3 2.2-0.55 2.7-0.61 0.42-0.053 0.44-0.051 0.54 0.052 0.093 0.093 0.099 0.12 0.045 0.22-0.034 0.064-0.13 0.14-0.22 0.16-0.12 0.037-0.17 0.085-0.21 0.23-0.029 0.1-0.076 0.2-0.1 0.22-0.071 0.046-0.17 0.23-0.17 0.32 0 0.19-0.22 0.32-0.77 0.45-0.79 0.19-1.3 0.34-2.1 0.67-0.41 0.17-0.81 0.33-0.9 0.36-0.23 0.086-0.34 0.21-0.27 0.29 0.063 0.063 0.21 0.037 1.9-0.33 0.33-0.071 0.74-0.16 0.91-0.2 0.39-0.084 1-0.093 1.1-0.016 0.077 0.077 0.02 0.38-0.11 0.56-0.17 0.24-0.52 0.62-0.9 0.97-0.37 0.34-0.91 0.65-1.6 0.93-0.4 0.16-1.2 0.53-1.2 0.59-0.021 0.021 0.018 0.14 0.087 0.27 0.068 0.13 0.12 0.31 0.12 0.39-0.0016 0.2-0.19 0.66-0.37 0.9-0.37 0.5-1 1.1-1.3 1.1-0.3 0-0.96-0.23-1.7-0.57-0.45-0.22-0.81-0.37-0.91-0.37-0.14 0-0.15 0.01-0.092 0.077 0.035 0.043 0.22 0.18 0.41 0.3 0.19 0.12 0.53 0.36 0.75 0.53 0.22 0.17 0.49 0.37 0.61 0.44 0.12 0.076 0.21 0.15 0.21 0.17 0 0.057-0.77 0.3-0.95 0.3-0.097 0-0.3 0.056-0.46 0.12-0.22 0.095-0.36 0.12-0.64 0.12-0.21 0-0.46 0.034-0.58 0.078-0.12 0.044-0.45 0.088-0.76 0.1-0.49 0.021-1 0.11-1.8 0.29-0.14 0.033-0.38 0.12-0.54 0.19-0.16 0.074-0.42 0.19-0.58 0.26-0.29 0.13-0.83 0.63-0.83 0.76 0.0016 0.038 0.11 0.12 0.25 0.18 0.21 0.097 0.25 0.14 0.28 0.29 0.036 0.19 0.12 0.25 0.58 0.39 0.65 0.2 1.1 0.89 0.77 1.3-0.055 0.068-0.18 0.24-0.27 0.38-0.095 0.14-0.26 0.31-0.37 0.39-0.23 0.16-0.25 0.3-0.081 0.5 0.28 0.34 0.3 0.61 0.079 1.1-0.2 0.4-0.47 0.68-0.88 0.93-0.19 0.11-0.35 0.23-0.36 0.27-0.014 0.037-0.0082 0.16 0.013 0.28 0.046 0.25 0.0097 0.42-0.18 0.85-0.16 0.34-0.49 0.69-0.86 0.9-0.17 0.096-0.2 0.14-0.24 0.38-0.12 0.62-0.35 1.1-0.7 1.3-0.16 0.13-0.29 0.27-0.31 0.33-0.012 0.054-0.049 0.23-0.08 0.39-0.11 0.52-0.61 1.3-1 1.5-0.18 0.1-0.19 0.12-0.19 0.37 0 0.66-0.36 1.4-1.1 2.1-0.27 0.27-0.4 0.45-0.4 0.52 0 0.3-0.36 1.1-0.7 1.5-0.11 0.13-0.25 0.39-0.32 0.59-0.07 0.2-0.17 0.48-0.22 0.62-0.12 0.34-0.18 0.46-0.34 0.63-0.17 0.19-0.46 0.72-0.54 1-0.067 0.23-0.35 0.58-0.51 0.63-0.053 0.017-0.14 0.12-0.2 0.24-0.057 0.11-0.19 0.32-0.29 0.45-0.1 0.14-0.22 0.32-0.27 0.4-0.045 0.086-0.21 0.32-0.37 0.52-0.16 0.2-0.33 0.44-0.37 0.54-0.093 0.22-0.32 0.39-0.72 0.54l-0.31 0.11-1-0.53-0.15 0.14c-0.083 0.08-0.17 0.19-0.18 0.25-0.099 0.31-0.82 0.87-1.1 0.87-0.099 0-0.12 0.031-0.15 0.21-0.017 0.12-0.0084 0.29 0.019 0.38 0.078 0.27 0.057 0.65-0.048 0.88-0.053 0.12-0.084 0.24-0.07 0.28 0.035 0.091 0.54 0.44 0.78 0.54 0.1 0.043 0.35 0.1 0.54 0.13 1 0.14 2.4 0.63 3.2 1.2 0.24 0.15 0.74 0.37 2.1 0.89 0.76 0.3 0.94 0.39 0.78 0.39-0.18 0-0.073 0.092 0.17 0.15 0.28 0.068 0.79 0.26 1.3 0.49 0.86 0.39 2.7 1.1 3.5 1.3 0.27 0.077 0.92 0.25 1.4 0.39 1.6 0.41 1.9 0.54 1.9 0.94 0 0.29-0.076 0.44-0.22 0.44-0.18 0-0.26 0.12-0.19 0.28 0.051 0.11 0.042 0.15-0.066 0.29-0.16 0.21-0.73 0.53-0.99 0.56-0.26 0.03-0.58-0.072-1.3-0.41-0.46-0.22-0.61-0.27-1-0.32-0.53-0.064-0.58-0.085-0.9-0.39-0.21-0.19-0.26-0.22-0.39-0.19-0.32 0.064-0.35 0.17-0.19 0.69 0.1 0.32 0.1 0.33 0.69 0.8 0.69 0.55 0.85 0.76 0.83 1.1-0.014 0.2-0.032 0.22-0.21 0.31l-0.2 0.092 0.33 0.27-0.1 0.29c-0.057 0.16-0.13 0.31-0.16 0.33-0.034 0.019-0.16 0.13-0.28 0.24-0.28 0.25-0.39 0.25-0.77 0.022-0.16-0.099-0.36-0.21-0.44-0.26-0.082-0.042-0.28-0.16-0.44-0.26-0.27-0.17-0.3-0.18-0.31-0.093-0.024 0.15 0.18 0.5 0.45 0.78 0.21 0.21 0.24 0.27 0.18 0.31-0.041 0.026-0.12 0.047-0.19 0.048-0.13 0.0013-0.14 0.097-0.037 0.4 0.1 0.29 0.095 0.37-0.068 0.71-0.11 0.22-0.24 0.38-0.5 0.62-0.2 0.18-0.41 0.35-0.47 0.4-0.06 0.041-0.19 0.17-0.29 0.3-0.22 0.26-0.9 0.63-1.3 0.7-0.29 0.05-0.35 0.12-0.4 0.45-0.07 0.51-0.53 1-1.3 1.4-0.25 0.14-0.48 0.11-0.65-0.062-0.078-0.082-0.17-0.15-0.2-0.15-0.03 0-0.12 0.14-0.21 0.31-0.2 0.39-0.84 1.2-1.1 1.3-0.17 0.1-0.2 0.14-0.23 0.35-0.019 0.13-0.077 0.32-0.13 0.43-0.093 0.19-0.15 0.28-0.52 0.8-0.2 0.29-0.65 0.76-0.72 0.76-0.026 0-0.17 0.056-0.31 0.13-0.15 0.069-0.37 0.14-0.51 0.15-0.21 0.025-0.26 0.012-0.39-0.1-0.2-0.17-0.28-0.34-0.57-1.3-0.14-0.44-0.35-1-0.49-1.3-1-2.1-1.3-2.6-1.5-3-0.14-0.22-0.27-0.48-0.3-0.57-0.031-0.088-0.086-0.16-0.12-0.16-0.072 0-0.75-1.3-0.91-1.8-0.051-0.15-0.12-0.26-0.14-0.26-0.028 0.0057-0.12-0.18-0.2-0.41-0.19-0.52-0.43-1-0.51-1-0.061 0-0.013 0.63 0.063 0.83 0.14 0.37-0.19-0.042-0.53-0.66-0.44-0.81-1.1-2.5-1.2-3-0.043-0.21-0.092-0.54-0.11-0.74-0.018-0.2-0.077-0.47-0.13-0.6-0.11-0.27-0.034-0.25-0.73-0.13-0.15 0.027-0.57 0.066-0.94 0.088-0.37 0.021-0.7 0.056-0.73 0.077-0.11 0.069 0.013 0.19 0.59 0.54 0.34 0.22 0.61 0.42 0.67 0.52 0.18 0.26 0.23 0.51 0.16 0.82-0.064 0.31-0.23 0.48-0.8 0.86-0.61 0.41-0.83 0.63-0.88 0.91-0.051 0.28-0.24 0.57-0.46 0.7-0.089 0.051-0.23 0.15-0.31 0.23-0.082 0.076-0.29 0.22-0.47 0.33-0.23 0.14-0.33 0.23-0.36 0.33-0.05 0.19-0.27 0.41-0.47 0.47-0.09 0.03-0.31 0.15-0.49 0.27-0.18 0.12-0.44 0.26-0.57 0.31-0.19 0.067-0.26 0.12-0.31 0.24-0.1 0.24-0.31 0.45-0.55 0.57-0.13 0.059-0.31 0.16-0.42 0.23-0.11 0.066-0.36 0.18-0.58 0.25-0.42 0.14-0.46 0.17-0.46 0.39-0.0064 0.52-0.67 1.2-1.7 1.7-0.17 0.08-0.24 0.15-0.26 0.24-0.088 0.43-0.91 1.1-1.7 1.3-0.33 0.11-0.45 0.17-0.52 0.28-0.13 0.19-0.49 0.56-0.54 0.56-0.022 0-0.12 0.052-0.22 0.12-0.26 0.16-0.6 0.28-0.91 0.32l-0.26 0.032-0.28 0.43c-0.18 0.28-0.34 0.46-0.45 0.51-0.089 0.046-0.2 0.12-0.24 0.17-0.041 0.046-0.17 0.13-0.28 0.19-0.26 0.13-0.78 0.14-1.1 0.026-0.29-0.099-0.3-0.091-0.54 0.46-0.25 0.57-0.41 0.81-0.76 1.1-0.56 0.5-0.75 0.53-1.3 0.23-0.23-0.12-0.4-0.18-0.44-0.16-0.067 0.037-0.71 0.74-0.98 1.1-0.16 0.2-0.44 0.3-0.7 0.25-0.19-0.036-0.41-0.23-0.95-0.84l-0.3-0.35-0.29 0.15c-0.24 0.13-0.31 0.2-0.45 0.44-0.2 0.36-0.36 0.85-0.36 1.1 0 0.089 0.025 0.25 0.054 0.36 0.029 0.11 0.058 0.46 0.065 0.79 0.01 0.5 0.039 0.69 0.17 1.2 0.15 0.52 0.16 0.64 0.18 1.4 0.024 1.2-0.2 2.4-0.6 3.1-0.27 0.52-0.25 0.52-0.65-0.0073-0.19-0.25-0.41-0.54-0.48-0.63-0.069-0.09-0.15-0.15-0.18-0.14-0.083 0.027-0.17 0.43-0.23 1-0.054 0.55-0.15 0.9-0.47 1.7-0.092 0.23-0.17 0.46-0.17 0.51 0 0.14-0.12 0.11-0.22-0.062-0.05-0.085-0.31-0.38-0.57-0.66-0.26-0.28-0.54-0.61-0.62-0.73-0.081-0.13-0.18-0.25-0.21-0.26-0.036-0.014-0.12 0.036-0.19 0.11-0.13 0.14-0.46 0.8-0.46 0.92 0 0.039-0.055 0.17-0.12 0.3-0.16 0.3-0.89 2.5-0.99 2.9-0.042 0.2-0.078 0.51-0.08 0.69-0.0057 0.36-0.046 0.56-0.12 0.58-0.026 0.0072-0.13-0.04-0.22-0.1z" fill="#fff" stroke-width=".049"/>
</g>
</g>
<g fill="#002140" fill-opacity=".64" stroke="#0081ff" stroke-opacity=".45" stroke-width=".38" aria-label="Rubbish">
<path d="m-209 467q-0.35 0.2-0.81 0.099-3.1-0.71-5.9-0.062 1.2 1.9 1.3 2.1 0.22 0.37 0.1 0.79-0.11 0.41-0.51 0.63-0.39 0.23-0.8 0.12-0.41-0.11-0.63-0.48-0.28-0.49-0.83-1.5-0.55-0.99-0.84-1.5l-3-5.3q-0.25-0.43-0.19-0.92 0.077-0.64 0.69-0.93 1.7-0.8 1.7-0.82 0.98-0.42 1.8-0.46 3.6-0.21 4.8 1.9 0.5 0.86 0.29 1.9-0.2 0.99-1.1 2.1 2.3-0.033 3.8 0.47 0.38 0.13 0.57 0.45 0.21 0.37 0.092 0.79-0.12 0.42-0.5 0.64zm-9-5.8q-0.056 0.024-0.8 0.39l2 3.5q0.17-0.088 0.29-0.16 1.6-0.93 2.1-1.8 0.24-0.36 0.35-0.8 0.12-0.44 0.036-0.59-0.42-0.73-1.7-0.88-1.3-0.13-2.3 0.33z"/>
<path d="m-201 459q0.17 0.48 0.53 1.4 0.36 0.96 0.53 1.4 0.054 0.15 0.18 0.44 0.13 0.28 0.19 0.43 0.14 0.4-0.053 0.76-0.19 0.37-0.61 0.52-0.59 0.21-1.1-0.22-0.79 0.67-1.8 1-1 0.37-1.9 0.19-0.95-0.21-1.4-1.1-0.92-1.7-1.4-3.1-0.34-0.92-0.56-2.2-0.15-0.86 0.67-1.2 0.41-0.15 0.8 7e-3 0.38 0.15 0.53 0.55 0.11 0.31 0.25 1 0.14 0.7 0.27 1.1 0.36 1 0.7 1.7 0.34 0.72 0.66 1.2 0.21 0.014 0.39-3e-3 0.19-0.02 0.34-0.076 0.79-0.29 1.7-0.86-0.2-0.55-0.46-1.2-0.32-0.83-0.45-1.2-0.53-1.5-0.78-2.6-0.2-0.89 0.66-1.2 0.42-0.15 0.81 2e-3 0.39 0.15 0.52 0.56 0.85 2.8 0.78 2.6z"/>
<path d="m-194 463q-1 0.18-2-0.016-0.23 0.32-0.62 0.39-0.4 0.071-0.74-0.15-0.33-0.22-0.4-0.62-0.032-0.18-0.074-0.55-0.043-0.38-0.075-0.56l-1.5-8.4q-0.095-0.54 0.07-1 0.2-0.58 0.76-0.68 0.8-0.14 0.95 0.72 0.017 0.097 0.025 0.32 0.014 0.21 0.032 0.31l0.5 2.9q0.5-0.4 0.98-0.64 0.48-0.25 0.95-0.33 1.8-0.31 3.1 0.78 1.2 1 1.5 2.7 0.3 1.7-0.65 3.1-0.98 1.4-2.7 1.8zm-0.85-6.5q-0.39 0.068-0.85 0.38-0.47 0.31-1 0.87 0.12 0.71 0.56 3.2 1.1 0.26 1.8 0.13 0.95-0.17 1.4-0.91 0.5-0.75 0.33-1.7-0.17-0.97-0.78-1.5-0.64-0.56-1.5-0.41z"/>
<path d="m-185 463q-1.1 0-2-0.37-0.28 0.28-0.68 0.28-0.41 0-0.7-0.27-0.29-0.27-0.29-0.68 0-0.18 0.023-0.55 0.023-0.38 0.023-0.56v-8.6q0-0.54 0.24-0.97 0.3-0.54 0.86-0.54 0.81 0 0.81 0.88 0 0.098-0.03 0.32-0.023 0.21-0.023 0.31v2.9q0.56-0.31 1.1-0.46 0.51-0.16 0.99-0.16 1.8 0 2.9 1.3 1 1.2 1 2.9 0 1.8-1.2 3-1.2 1.2-3 1.2zm0.29-6.5q-0.39 0-0.91 0.23-0.51 0.23-1.2 0.68-8e-3 0.72 0 3.2 1 0.45 1.8 0.45 0.96 0 1.6-0.64 0.62-0.65 0.62-1.6t-0.51-1.6q-0.53-0.67-1.4-0.67z"/>
<path d="m-176 455q-0.48-0.084-0.77-0.47t-0.21-0.84q0.082-0.46 0.49-0.72 0.41-0.26 0.88-0.17t0.76 0.47q0.29 0.38 0.21 0.84-0.082 0.46-0.49 0.72-0.4 0.26-0.88 0.18zm-0.33 5.6q-0.075 0.42-0.22 1.4-0.14 0.94-0.21 1.4-0.076 0.43-0.42 0.66-0.34 0.22-0.79 0.15-0.45-0.079-0.69-0.41-0.24-0.33-0.16-0.77 0.075-0.42 0.21-1.4 0.14-0.94 0.22-1.4 0.12-0.66 0.37-1.6 0.25-0.99 0.37-1.6 0.076-0.43 0.42-0.66 0.34-0.23 0.79-0.15 0.45 0.079 0.69 0.41 0.24 0.33 0.17 0.76-0.12 0.66-0.37 1.6-0.25 0.99-0.37 1.6z"/>
<path d="m-168 461q-0.7-0.26-0.63-0.9-0.27-0.15-0.56-0.26-1.7-0.62-1.9-0.15-0.1 0.28 0.76 1.1 1.2 1.2 1.5 1.7 0.76 1.1 0.42 2.1-0.45 1.2-1.8 1.4-1.1 0.17-2.4-0.32-0.95-0.34-1.6-0.92-0.92-0.79-0.64-1.6 0.26-0.71 1.1-0.4 0.33 0.12 0.87 0.55 0.54 0.43 0.88 0.55 1.4 0.53 1.7-0.055 0.13-0.36-0.71-1.2-1.2-1.2-1.5-1.6-0.75-1.1-0.38-2.1 0.52-1.4 2.2-1.4 1 0.032 2.8 0.69 0.71 0.26 0.99 0.57 0.38 0.42 0.14 1.1-0.47 1.3-1.2 1z"/>
<path d="m-162 462q0.75-0.2 1.4-0.11 0.69 0.082 1.3 0.44 1.1 0.65 1.2 1.6 0.095 0.68-0.39 1.7-0.43 0.83-0.86 1.7-0.5 1.1-0.61 1.4-0.33 0.78-0.51 1.4-0.047 0.16-0.11 0.26-0.21 0.37-0.63 0.44-0.42 0.084-0.79-0.13-0.66-0.38-0.48-1.2 0.15-0.62 0.57-1.7 0.42-0.99 0.76-1.6 0.095-0.16 0.3-0.48 0.21-0.32 0.31-0.49 0.28-0.48 0.31-0.57 0.15-0.39-0.13-0.56-0.73-0.42-1.7-0.092-0.49 0.16-1.6 0.79-1.4 2.4-1.9 2.7-0.57 0.39-1.1 0.068-0.37-0.21-0.52-0.62-0.14-0.41 0.07-0.77 0.072-0.12 0.27-0.31 0.13-0.12 1.1-1.7 0.73-1.3 2.5-4.4l0.14-0.21q0.49-0.75 0.64-1 0.12-0.2 0.28-0.63 0.17-0.43 0.29-0.64 0.22-0.37 0.62-0.45 0.41-0.087 0.79 0.13 0.65 0.37 0.47 1.2-0.1 0.47-0.57 1.3-0.38 0.66-0.81 1.3-0.41 0.62-0.77 1.2z"/>
</g>
</g>
</svg>
